%TF.GenerationSoftware,KiCad,Pcbnew,7.0.6*%
%TF.CreationDate,2023-12-03T11:12:56+09:00*%
%TF.ProjectId,skku-bus,736b6b75-2d62-4757-932e-6b696361645f,rev?*%
%TF.SameCoordinates,Original*%
%TF.FileFunction,Legend,Bot*%
%TF.FilePolarity,Positive*%
%FSLAX46Y46*%
G04 Gerber Fmt 4.6, Leading zero omitted, Abs format (unit mm)*
G04 Created by KiCad (PCBNEW 7.0.6) date 2023-12-03 11:12:56*
%MOMM*%
%LPD*%
G01*
G04 APERTURE LIST*
%ADD10C,0.150000*%
%ADD11C,0.120000*%
G04 APERTURE END LIST*
D10*
X119319813Y-67951775D02*
X119653146Y-67475584D01*
X119891241Y-67951775D02*
X119891241Y-66951775D01*
X119891241Y-66951775D02*
X119510289Y-66951775D01*
X119510289Y-66951775D02*
X119415051Y-66999394D01*
X119415051Y-66999394D02*
X119367432Y-67047013D01*
X119367432Y-67047013D02*
X119319813Y-67142251D01*
X119319813Y-67142251D02*
X119319813Y-67285108D01*
X119319813Y-67285108D02*
X119367432Y-67380346D01*
X119367432Y-67380346D02*
X119415051Y-67427965D01*
X119415051Y-67427965D02*
X119510289Y-67475584D01*
X119510289Y-67475584D02*
X119891241Y-67475584D01*
X118938860Y-67047013D02*
X118891241Y-66999394D01*
X118891241Y-66999394D02*
X118796003Y-66951775D01*
X118796003Y-66951775D02*
X118557908Y-66951775D01*
X118557908Y-66951775D02*
X118462670Y-66999394D01*
X118462670Y-66999394D02*
X118415051Y-67047013D01*
X118415051Y-67047013D02*
X118367432Y-67142251D01*
X118367432Y-67142251D02*
X118367432Y-67237489D01*
X118367432Y-67237489D02*
X118415051Y-67380346D01*
X118415051Y-67380346D02*
X118986479Y-67951775D01*
X118986479Y-67951775D02*
X118367432Y-67951775D01*
X117462670Y-66951775D02*
X117938860Y-66951775D01*
X117938860Y-66951775D02*
X117986479Y-67427965D01*
X117986479Y-67427965D02*
X117938860Y-67380346D01*
X117938860Y-67380346D02*
X117843622Y-67332727D01*
X117843622Y-67332727D02*
X117605527Y-67332727D01*
X117605527Y-67332727D02*
X117510289Y-67380346D01*
X117510289Y-67380346D02*
X117462670Y-67427965D01*
X117462670Y-67427965D02*
X117415051Y-67523203D01*
X117415051Y-67523203D02*
X117415051Y-67761298D01*
X117415051Y-67761298D02*
X117462670Y-67856536D01*
X117462670Y-67856536D02*
X117510289Y-67904156D01*
X117510289Y-67904156D02*
X117605527Y-67951775D01*
X117605527Y-67951775D02*
X117843622Y-67951775D01*
X117843622Y-67951775D02*
X117938860Y-67904156D01*
X117938860Y-67904156D02*
X117986479Y-67856536D01*
X109319813Y-67951775D02*
X109653146Y-67475584D01*
X109891241Y-67951775D02*
X109891241Y-66951775D01*
X109891241Y-66951775D02*
X109510289Y-66951775D01*
X109510289Y-66951775D02*
X109415051Y-66999394D01*
X109415051Y-66999394D02*
X109367432Y-67047013D01*
X109367432Y-67047013D02*
X109319813Y-67142251D01*
X109319813Y-67142251D02*
X109319813Y-67285108D01*
X109319813Y-67285108D02*
X109367432Y-67380346D01*
X109367432Y-67380346D02*
X109415051Y-67427965D01*
X109415051Y-67427965D02*
X109510289Y-67475584D01*
X109510289Y-67475584D02*
X109891241Y-67475584D01*
X108938860Y-67047013D02*
X108891241Y-66999394D01*
X108891241Y-66999394D02*
X108796003Y-66951775D01*
X108796003Y-66951775D02*
X108557908Y-66951775D01*
X108557908Y-66951775D02*
X108462670Y-66999394D01*
X108462670Y-66999394D02*
X108415051Y-67047013D01*
X108415051Y-67047013D02*
X108367432Y-67142251D01*
X108367432Y-67142251D02*
X108367432Y-67237489D01*
X108367432Y-67237489D02*
X108415051Y-67380346D01*
X108415051Y-67380346D02*
X108986479Y-67951775D01*
X108986479Y-67951775D02*
X108367432Y-67951775D01*
X108034098Y-66951775D02*
X107415051Y-66951775D01*
X107415051Y-66951775D02*
X107748384Y-67332727D01*
X107748384Y-67332727D02*
X107605527Y-67332727D01*
X107605527Y-67332727D02*
X107510289Y-67380346D01*
X107510289Y-67380346D02*
X107462670Y-67427965D01*
X107462670Y-67427965D02*
X107415051Y-67523203D01*
X107415051Y-67523203D02*
X107415051Y-67761298D01*
X107415051Y-67761298D02*
X107462670Y-67856536D01*
X107462670Y-67856536D02*
X107510289Y-67904156D01*
X107510289Y-67904156D02*
X107605527Y-67951775D01*
X107605527Y-67951775D02*
X107891241Y-67951775D01*
X107891241Y-67951775D02*
X107986479Y-67904156D01*
X107986479Y-67904156D02*
X108034098Y-67856536D01*
X125642857Y-100634819D02*
X125976190Y-100158628D01*
X126214285Y-100634819D02*
X126214285Y-99634819D01*
X126214285Y-99634819D02*
X125833333Y-99634819D01*
X125833333Y-99634819D02*
X125738095Y-99682438D01*
X125738095Y-99682438D02*
X125690476Y-99730057D01*
X125690476Y-99730057D02*
X125642857Y-99825295D01*
X125642857Y-99825295D02*
X125642857Y-99968152D01*
X125642857Y-99968152D02*
X125690476Y-100063390D01*
X125690476Y-100063390D02*
X125738095Y-100111009D01*
X125738095Y-100111009D02*
X125833333Y-100158628D01*
X125833333Y-100158628D02*
X126214285Y-100158628D01*
X125261904Y-99730057D02*
X125214285Y-99682438D01*
X125214285Y-99682438D02*
X125119047Y-99634819D01*
X125119047Y-99634819D02*
X124880952Y-99634819D01*
X124880952Y-99634819D02*
X124785714Y-99682438D01*
X124785714Y-99682438D02*
X124738095Y-99730057D01*
X124738095Y-99730057D02*
X124690476Y-99825295D01*
X124690476Y-99825295D02*
X124690476Y-99920533D01*
X124690476Y-99920533D02*
X124738095Y-100063390D01*
X124738095Y-100063390D02*
X125309523Y-100634819D01*
X125309523Y-100634819D02*
X124690476Y-100634819D01*
X123738095Y-100634819D02*
X124309523Y-100634819D01*
X124023809Y-100634819D02*
X124023809Y-99634819D01*
X124023809Y-99634819D02*
X124119047Y-99777676D01*
X124119047Y-99777676D02*
X124214285Y-99872914D01*
X124214285Y-99872914D02*
X124309523Y-99920533D01*
X135642857Y-100784819D02*
X135976190Y-100308628D01*
X136214285Y-100784819D02*
X136214285Y-99784819D01*
X136214285Y-99784819D02*
X135833333Y-99784819D01*
X135833333Y-99784819D02*
X135738095Y-99832438D01*
X135738095Y-99832438D02*
X135690476Y-99880057D01*
X135690476Y-99880057D02*
X135642857Y-99975295D01*
X135642857Y-99975295D02*
X135642857Y-100118152D01*
X135642857Y-100118152D02*
X135690476Y-100213390D01*
X135690476Y-100213390D02*
X135738095Y-100261009D01*
X135738095Y-100261009D02*
X135833333Y-100308628D01*
X135833333Y-100308628D02*
X136214285Y-100308628D01*
X134690476Y-100784819D02*
X135261904Y-100784819D01*
X134976190Y-100784819D02*
X134976190Y-99784819D01*
X134976190Y-99784819D02*
X135071428Y-99927676D01*
X135071428Y-99927676D02*
X135166666Y-100022914D01*
X135166666Y-100022914D02*
X135261904Y-100070533D01*
X134214285Y-100784819D02*
X134023809Y-100784819D01*
X134023809Y-100784819D02*
X133928571Y-100737200D01*
X133928571Y-100737200D02*
X133880952Y-100689580D01*
X133880952Y-100689580D02*
X133785714Y-100546723D01*
X133785714Y-100546723D02*
X133738095Y-100356247D01*
X133738095Y-100356247D02*
X133738095Y-99975295D01*
X133738095Y-99975295D02*
X133785714Y-99880057D01*
X133785714Y-99880057D02*
X133833333Y-99832438D01*
X133833333Y-99832438D02*
X133928571Y-99784819D01*
X133928571Y-99784819D02*
X134119047Y-99784819D01*
X134119047Y-99784819D02*
X134214285Y-99832438D01*
X134214285Y-99832438D02*
X134261904Y-99880057D01*
X134261904Y-99880057D02*
X134309523Y-99975295D01*
X134309523Y-99975295D02*
X134309523Y-100213390D01*
X134309523Y-100213390D02*
X134261904Y-100308628D01*
X134261904Y-100308628D02*
X134214285Y-100356247D01*
X134214285Y-100356247D02*
X134119047Y-100403866D01*
X134119047Y-100403866D02*
X133928571Y-100403866D01*
X133928571Y-100403866D02*
X133833333Y-100356247D01*
X133833333Y-100356247D02*
X133785714Y-100308628D01*
X133785714Y-100308628D02*
X133738095Y-100213390D01*
X129319813Y-67951775D02*
X129653146Y-67475584D01*
X129891241Y-67951775D02*
X129891241Y-66951775D01*
X129891241Y-66951775D02*
X129510289Y-66951775D01*
X129510289Y-66951775D02*
X129415051Y-66999394D01*
X129415051Y-66999394D02*
X129367432Y-67047013D01*
X129367432Y-67047013D02*
X129319813Y-67142251D01*
X129319813Y-67142251D02*
X129319813Y-67285108D01*
X129319813Y-67285108D02*
X129367432Y-67380346D01*
X129367432Y-67380346D02*
X129415051Y-67427965D01*
X129415051Y-67427965D02*
X129510289Y-67475584D01*
X129510289Y-67475584D02*
X129891241Y-67475584D01*
X128367432Y-67951775D02*
X128938860Y-67951775D01*
X128653146Y-67951775D02*
X128653146Y-66951775D01*
X128653146Y-66951775D02*
X128748384Y-67094632D01*
X128748384Y-67094632D02*
X128843622Y-67189870D01*
X128843622Y-67189870D02*
X128938860Y-67237489D01*
X128034098Y-66951775D02*
X127367432Y-66951775D01*
X127367432Y-66951775D02*
X127796003Y-67951775D01*
X138784819Y-88357142D02*
X138308628Y-88023809D01*
X138784819Y-87785714D02*
X137784819Y-87785714D01*
X137784819Y-87785714D02*
X137784819Y-88166666D01*
X137784819Y-88166666D02*
X137832438Y-88261904D01*
X137832438Y-88261904D02*
X137880057Y-88309523D01*
X137880057Y-88309523D02*
X137975295Y-88357142D01*
X137975295Y-88357142D02*
X138118152Y-88357142D01*
X138118152Y-88357142D02*
X138213390Y-88309523D01*
X138213390Y-88309523D02*
X138261009Y-88261904D01*
X138261009Y-88261904D02*
X138308628Y-88166666D01*
X138308628Y-88166666D02*
X138308628Y-87785714D01*
X138784819Y-89309523D02*
X138784819Y-88738095D01*
X138784819Y-89023809D02*
X137784819Y-89023809D01*
X137784819Y-89023809D02*
X137927676Y-88928571D01*
X137927676Y-88928571D02*
X138022914Y-88833333D01*
X138022914Y-88833333D02*
X138070533Y-88738095D01*
X137784819Y-90214285D02*
X137784819Y-89738095D01*
X137784819Y-89738095D02*
X138261009Y-89690476D01*
X138261009Y-89690476D02*
X138213390Y-89738095D01*
X138213390Y-89738095D02*
X138165771Y-89833333D01*
X138165771Y-89833333D02*
X138165771Y-90071428D01*
X138165771Y-90071428D02*
X138213390Y-90166666D01*
X138213390Y-90166666D02*
X138261009Y-90214285D01*
X138261009Y-90214285D02*
X138356247Y-90261904D01*
X138356247Y-90261904D02*
X138594342Y-90261904D01*
X138594342Y-90261904D02*
X138689580Y-90214285D01*
X138689580Y-90214285D02*
X138737200Y-90166666D01*
X138737200Y-90166666D02*
X138784819Y-90071428D01*
X138784819Y-90071428D02*
X138784819Y-89833333D01*
X138784819Y-89833333D02*
X138737200Y-89738095D01*
X138737200Y-89738095D02*
X138689580Y-89690476D01*
X138784819Y-78357142D02*
X138308628Y-78023809D01*
X138784819Y-77785714D02*
X137784819Y-77785714D01*
X137784819Y-77785714D02*
X137784819Y-78166666D01*
X137784819Y-78166666D02*
X137832438Y-78261904D01*
X137832438Y-78261904D02*
X137880057Y-78309523D01*
X137880057Y-78309523D02*
X137975295Y-78357142D01*
X137975295Y-78357142D02*
X138118152Y-78357142D01*
X138118152Y-78357142D02*
X138213390Y-78309523D01*
X138213390Y-78309523D02*
X138261009Y-78261904D01*
X138261009Y-78261904D02*
X138308628Y-78166666D01*
X138308628Y-78166666D02*
X138308628Y-77785714D01*
X138784819Y-79309523D02*
X138784819Y-78738095D01*
X138784819Y-79023809D02*
X137784819Y-79023809D01*
X137784819Y-79023809D02*
X137927676Y-78928571D01*
X137927676Y-78928571D02*
X138022914Y-78833333D01*
X138022914Y-78833333D02*
X138070533Y-78738095D01*
X137784819Y-79642857D02*
X137784819Y-80261904D01*
X137784819Y-80261904D02*
X138165771Y-79928571D01*
X138165771Y-79928571D02*
X138165771Y-80071428D01*
X138165771Y-80071428D02*
X138213390Y-80166666D01*
X138213390Y-80166666D02*
X138261009Y-80214285D01*
X138261009Y-80214285D02*
X138356247Y-80261904D01*
X138356247Y-80261904D02*
X138594342Y-80261904D01*
X138594342Y-80261904D02*
X138689580Y-80214285D01*
X138689580Y-80214285D02*
X138737200Y-80166666D01*
X138737200Y-80166666D02*
X138784819Y-80071428D01*
X138784819Y-80071428D02*
X138784819Y-79785714D01*
X138784819Y-79785714D02*
X138737200Y-79690476D01*
X138737200Y-79690476D02*
X138689580Y-79642857D01*
X99319813Y-67951775D02*
X99653146Y-67475584D01*
X99891241Y-67951775D02*
X99891241Y-66951775D01*
X99891241Y-66951775D02*
X99510289Y-66951775D01*
X99510289Y-66951775D02*
X99415051Y-66999394D01*
X99415051Y-66999394D02*
X99367432Y-67047013D01*
X99367432Y-67047013D02*
X99319813Y-67142251D01*
X99319813Y-67142251D02*
X99319813Y-67285108D01*
X99319813Y-67285108D02*
X99367432Y-67380346D01*
X99367432Y-67380346D02*
X99415051Y-67427965D01*
X99415051Y-67427965D02*
X99510289Y-67475584D01*
X99510289Y-67475584D02*
X99891241Y-67475584D01*
X98367432Y-67951775D02*
X98938860Y-67951775D01*
X98653146Y-67951775D02*
X98653146Y-66951775D01*
X98653146Y-66951775D02*
X98748384Y-67094632D01*
X98748384Y-67094632D02*
X98843622Y-67189870D01*
X98843622Y-67189870D02*
X98938860Y-67237489D01*
X97415051Y-67951775D02*
X97986479Y-67951775D01*
X97700765Y-67951775D02*
X97700765Y-66951775D01*
X97700765Y-66951775D02*
X97796003Y-67094632D01*
X97796003Y-67094632D02*
X97891241Y-67189870D01*
X97891241Y-67189870D02*
X97986479Y-67237489D01*
X105166666Y-100784819D02*
X105499999Y-100308628D01*
X105738094Y-100784819D02*
X105738094Y-99784819D01*
X105738094Y-99784819D02*
X105357142Y-99784819D01*
X105357142Y-99784819D02*
X105261904Y-99832438D01*
X105261904Y-99832438D02*
X105214285Y-99880057D01*
X105214285Y-99880057D02*
X105166666Y-99975295D01*
X105166666Y-99975295D02*
X105166666Y-100118152D01*
X105166666Y-100118152D02*
X105214285Y-100213390D01*
X105214285Y-100213390D02*
X105261904Y-100261009D01*
X105261904Y-100261009D02*
X105357142Y-100308628D01*
X105357142Y-100308628D02*
X105738094Y-100308628D01*
X104690475Y-100784819D02*
X104499999Y-100784819D01*
X104499999Y-100784819D02*
X104404761Y-100737200D01*
X104404761Y-100737200D02*
X104357142Y-100689580D01*
X104357142Y-100689580D02*
X104261904Y-100546723D01*
X104261904Y-100546723D02*
X104214285Y-100356247D01*
X104214285Y-100356247D02*
X104214285Y-99975295D01*
X104214285Y-99975295D02*
X104261904Y-99880057D01*
X104261904Y-99880057D02*
X104309523Y-99832438D01*
X104309523Y-99832438D02*
X104404761Y-99784819D01*
X104404761Y-99784819D02*
X104595237Y-99784819D01*
X104595237Y-99784819D02*
X104690475Y-99832438D01*
X104690475Y-99832438D02*
X104738094Y-99880057D01*
X104738094Y-99880057D02*
X104785713Y-99975295D01*
X104785713Y-99975295D02*
X104785713Y-100213390D01*
X104785713Y-100213390D02*
X104738094Y-100308628D01*
X104738094Y-100308628D02*
X104690475Y-100356247D01*
X104690475Y-100356247D02*
X104595237Y-100403866D01*
X104595237Y-100403866D02*
X104404761Y-100403866D01*
X104404761Y-100403866D02*
X104309523Y-100356247D01*
X104309523Y-100356247D02*
X104261904Y-100308628D01*
X104261904Y-100308628D02*
X104214285Y-100213390D01*
X115166666Y-100784819D02*
X115499999Y-100308628D01*
X115738094Y-100784819D02*
X115738094Y-99784819D01*
X115738094Y-99784819D02*
X115357142Y-99784819D01*
X115357142Y-99784819D02*
X115261904Y-99832438D01*
X115261904Y-99832438D02*
X115214285Y-99880057D01*
X115214285Y-99880057D02*
X115166666Y-99975295D01*
X115166666Y-99975295D02*
X115166666Y-100118152D01*
X115166666Y-100118152D02*
X115214285Y-100213390D01*
X115214285Y-100213390D02*
X115261904Y-100261009D01*
X115261904Y-100261009D02*
X115357142Y-100308628D01*
X115357142Y-100308628D02*
X115738094Y-100308628D01*
X114833332Y-99784819D02*
X114166666Y-99784819D01*
X114166666Y-99784819D02*
X114595237Y-100784819D01*
X95166666Y-100784819D02*
X95499999Y-100308628D01*
X95738094Y-100784819D02*
X95738094Y-99784819D01*
X95738094Y-99784819D02*
X95357142Y-99784819D01*
X95357142Y-99784819D02*
X95261904Y-99832438D01*
X95261904Y-99832438D02*
X95214285Y-99880057D01*
X95214285Y-99880057D02*
X95166666Y-99975295D01*
X95166666Y-99975295D02*
X95166666Y-100118152D01*
X95166666Y-100118152D02*
X95214285Y-100213390D01*
X95214285Y-100213390D02*
X95261904Y-100261009D01*
X95261904Y-100261009D02*
X95357142Y-100308628D01*
X95357142Y-100308628D02*
X95738094Y-100308628D01*
X94261904Y-99784819D02*
X94738094Y-99784819D01*
X94738094Y-99784819D02*
X94785713Y-100261009D01*
X94785713Y-100261009D02*
X94738094Y-100213390D01*
X94738094Y-100213390D02*
X94642856Y-100165771D01*
X94642856Y-100165771D02*
X94404761Y-100165771D01*
X94404761Y-100165771D02*
X94309523Y-100213390D01*
X94309523Y-100213390D02*
X94261904Y-100261009D01*
X94261904Y-100261009D02*
X94214285Y-100356247D01*
X94214285Y-100356247D02*
X94214285Y-100594342D01*
X94214285Y-100594342D02*
X94261904Y-100689580D01*
X94261904Y-100689580D02*
X94309523Y-100737200D01*
X94309523Y-100737200D02*
X94404761Y-100784819D01*
X94404761Y-100784819D02*
X94642856Y-100784819D01*
X94642856Y-100784819D02*
X94738094Y-100737200D01*
X94738094Y-100737200D02*
X94785713Y-100689580D01*
X85166666Y-100784819D02*
X85499999Y-100308628D01*
X85738094Y-100784819D02*
X85738094Y-99784819D01*
X85738094Y-99784819D02*
X85357142Y-99784819D01*
X85357142Y-99784819D02*
X85261904Y-99832438D01*
X85261904Y-99832438D02*
X85214285Y-99880057D01*
X85214285Y-99880057D02*
X85166666Y-99975295D01*
X85166666Y-99975295D02*
X85166666Y-100118152D01*
X85166666Y-100118152D02*
X85214285Y-100213390D01*
X85214285Y-100213390D02*
X85261904Y-100261009D01*
X85261904Y-100261009D02*
X85357142Y-100308628D01*
X85357142Y-100308628D02*
X85738094Y-100308628D01*
X84833332Y-99784819D02*
X84214285Y-99784819D01*
X84214285Y-99784819D02*
X84547618Y-100165771D01*
X84547618Y-100165771D02*
X84404761Y-100165771D01*
X84404761Y-100165771D02*
X84309523Y-100213390D01*
X84309523Y-100213390D02*
X84261904Y-100261009D01*
X84261904Y-100261009D02*
X84214285Y-100356247D01*
X84214285Y-100356247D02*
X84214285Y-100594342D01*
X84214285Y-100594342D02*
X84261904Y-100689580D01*
X84261904Y-100689580D02*
X84309523Y-100737200D01*
X84309523Y-100737200D02*
X84404761Y-100784819D01*
X84404761Y-100784819D02*
X84690475Y-100784819D01*
X84690475Y-100784819D02*
X84785713Y-100737200D01*
X84785713Y-100737200D02*
X84833332Y-100689580D01*
X88843622Y-67951775D02*
X89176955Y-67475584D01*
X89415050Y-67951775D02*
X89415050Y-66951775D01*
X89415050Y-66951775D02*
X89034098Y-66951775D01*
X89034098Y-66951775D02*
X88938860Y-66999394D01*
X88938860Y-66999394D02*
X88891241Y-67047013D01*
X88891241Y-67047013D02*
X88843622Y-67142251D01*
X88843622Y-67142251D02*
X88843622Y-67285108D01*
X88843622Y-67285108D02*
X88891241Y-67380346D01*
X88891241Y-67380346D02*
X88938860Y-67427965D01*
X88938860Y-67427965D02*
X89034098Y-67475584D01*
X89034098Y-67475584D02*
X89415050Y-67475584D01*
X87891241Y-67951775D02*
X88462669Y-67951775D01*
X88176955Y-67951775D02*
X88176955Y-66951775D01*
X88176955Y-66951775D02*
X88272193Y-67094632D01*
X88272193Y-67094632D02*
X88367431Y-67189870D01*
X88367431Y-67189870D02*
X88462669Y-67237489D01*
X105714285Y-102569104D02*
X105238095Y-102569104D01*
X105809523Y-102854819D02*
X105476190Y-101854819D01*
X105476190Y-101854819D02*
X105142857Y-102854819D01*
X104285714Y-102854819D02*
X104857142Y-102854819D01*
X104571428Y-102854819D02*
X104571428Y-101854819D01*
X104571428Y-101854819D02*
X104666666Y-101997676D01*
X104666666Y-101997676D02*
X104761904Y-102092914D01*
X104761904Y-102092914D02*
X104857142Y-102140533D01*
X93830180Y-113908094D02*
X94830180Y-113908094D01*
X94830180Y-113908094D02*
X94830180Y-113669999D01*
X94830180Y-113669999D02*
X94782561Y-113527142D01*
X94782561Y-113527142D02*
X94687323Y-113431904D01*
X94687323Y-113431904D02*
X94592085Y-113384285D01*
X94592085Y-113384285D02*
X94401609Y-113336666D01*
X94401609Y-113336666D02*
X94258752Y-113336666D01*
X94258752Y-113336666D02*
X94068276Y-113384285D01*
X94068276Y-113384285D02*
X93973038Y-113431904D01*
X93973038Y-113431904D02*
X93877800Y-113527142D01*
X93877800Y-113527142D02*
X93830180Y-113669999D01*
X93830180Y-113669999D02*
X93830180Y-113908094D01*
X94830180Y-112717618D02*
X94830180Y-112622380D01*
X94830180Y-112622380D02*
X94782561Y-112527142D01*
X94782561Y-112527142D02*
X94734942Y-112479523D01*
X94734942Y-112479523D02*
X94639704Y-112431904D01*
X94639704Y-112431904D02*
X94449228Y-112384285D01*
X94449228Y-112384285D02*
X94211133Y-112384285D01*
X94211133Y-112384285D02*
X94020657Y-112431904D01*
X94020657Y-112431904D02*
X93925419Y-112479523D01*
X93925419Y-112479523D02*
X93877800Y-112527142D01*
X93877800Y-112527142D02*
X93830180Y-112622380D01*
X93830180Y-112622380D02*
X93830180Y-112717618D01*
X93830180Y-112717618D02*
X93877800Y-112812856D01*
X93877800Y-112812856D02*
X93925419Y-112860475D01*
X93925419Y-112860475D02*
X94020657Y-112908094D01*
X94020657Y-112908094D02*
X94211133Y-112955713D01*
X94211133Y-112955713D02*
X94449228Y-112955713D01*
X94449228Y-112955713D02*
X94639704Y-112908094D01*
X94639704Y-112908094D02*
X94734942Y-112860475D01*
X94734942Y-112860475D02*
X94782561Y-112812856D01*
X94782561Y-112812856D02*
X94830180Y-112717618D01*
D11*
%TO.C,R25*%
X117949892Y-64766956D02*
X119404020Y-64766956D01*
X117949892Y-66586956D02*
X119404020Y-66586956D01*
%TO.C,R23*%
X107949892Y-66586956D02*
X109404020Y-66586956D01*
X107949892Y-64766956D02*
X109404020Y-64766956D01*
%TO.C,R21*%
X125727064Y-101090000D02*
X124272936Y-101090000D01*
X125727064Y-102910000D02*
X124272936Y-102910000D01*
%TO.C,R19*%
X135727064Y-101240000D02*
X134272936Y-101240000D01*
X135727064Y-103060000D02*
X134272936Y-103060000D01*
%TO.C,R17*%
X127949892Y-64766956D02*
X129404020Y-64766956D01*
X127949892Y-66586956D02*
X129404020Y-66586956D01*
%TO.C,R15*%
X139240000Y-88272936D02*
X139240000Y-89727064D01*
X141060000Y-88272936D02*
X141060000Y-89727064D01*
%TO.C,R13*%
X139240000Y-78272936D02*
X139240000Y-79727064D01*
X141060000Y-78272936D02*
X141060000Y-79727064D01*
%TO.C,R11*%
X97949892Y-66586956D02*
X99404020Y-66586956D01*
X97949892Y-64766956D02*
X99404020Y-64766956D01*
%TO.C,R9*%
X105727064Y-103060000D02*
X104272936Y-103060000D01*
X105727064Y-101240000D02*
X104272936Y-101240000D01*
%TO.C,R7*%
X115727064Y-101240000D02*
X114272936Y-101240000D01*
X115727064Y-103060000D02*
X114272936Y-103060000D01*
%TO.C,R5*%
X95727064Y-101240000D02*
X94272936Y-101240000D01*
X95727064Y-103060000D02*
X94272936Y-103060000D01*
%TO.C,R3*%
X85727064Y-103060000D02*
X84272936Y-103060000D01*
X85727064Y-101240000D02*
X84272936Y-101240000D01*
%TO.C,R1*%
X87949892Y-66586956D02*
X89404020Y-66586956D01*
X87949892Y-64766956D02*
X89404020Y-64766956D01*
%TD*%
M02*
