%TF.GenerationSoftware,KiCad,Pcbnew,7.0.6*%
%TF.CreationDate,2023-12-03T11:12:56+09:00*%
%TF.ProjectId,skku-bus,736b6b75-2d62-4757-932e-6b696361645f,rev?*%
%TF.SameCoordinates,Original*%
%TF.FileFunction,Legend,Top*%
%TF.FilePolarity,Positive*%
%FSLAX46Y46*%
G04 Gerber Fmt 4.6, Leading zero omitted, Abs format (unit mm)*
G04 Created by KiCad (PCBNEW 7.0.6) date 2023-12-03 11:12:56*
%MOMM*%
%LPD*%
G01*
G04 APERTURE LIST*
%ADD10C,0.400000*%
%ADD11C,0.150000*%
%ADD12C,0.300000*%
%ADD13C,0.120000*%
G04 APERTURE END LIST*
D10*
X136979200Y-140355890D02*
X137074438Y-140070176D01*
X137074438Y-140070176D02*
X137074438Y-139593985D01*
X137074438Y-139593985D02*
X136979200Y-139403509D01*
X136979200Y-139403509D02*
X136883961Y-139308271D01*
X136883961Y-139308271D02*
X136693485Y-139213033D01*
X136693485Y-139213033D02*
X136503009Y-139213033D01*
X136503009Y-139213033D02*
X136312533Y-139308271D01*
X136312533Y-139308271D02*
X136217295Y-139403509D01*
X136217295Y-139403509D02*
X136122057Y-139593985D01*
X136122057Y-139593985D02*
X136026819Y-139974938D01*
X136026819Y-139974938D02*
X135931580Y-140165414D01*
X135931580Y-140165414D02*
X135836342Y-140260652D01*
X135836342Y-140260652D02*
X135645866Y-140355890D01*
X135645866Y-140355890D02*
X135455390Y-140355890D01*
X135455390Y-140355890D02*
X135264914Y-140260652D01*
X135264914Y-140260652D02*
X135169676Y-140165414D01*
X135169676Y-140165414D02*
X135074438Y-139974938D01*
X135074438Y-139974938D02*
X135074438Y-139498747D01*
X135074438Y-139498747D02*
X135169676Y-139213033D01*
X137074438Y-138355890D02*
X135074438Y-138355890D01*
X137074438Y-137213033D02*
X135931580Y-138070176D01*
X135074438Y-137213033D02*
X136217295Y-138355890D01*
X137074438Y-136355890D02*
X135074438Y-136355890D01*
X137074438Y-135213033D02*
X135931580Y-136070176D01*
X135074438Y-135213033D02*
X136217295Y-136355890D01*
X135074438Y-134355890D02*
X136693485Y-134355890D01*
X136693485Y-134355890D02*
X136883961Y-134260652D01*
X136883961Y-134260652D02*
X136979200Y-134165414D01*
X136979200Y-134165414D02*
X137074438Y-133974938D01*
X137074438Y-133974938D02*
X137074438Y-133593985D01*
X137074438Y-133593985D02*
X136979200Y-133403509D01*
X136979200Y-133403509D02*
X136883961Y-133308271D01*
X136883961Y-133308271D02*
X136693485Y-133213033D01*
X136693485Y-133213033D02*
X135074438Y-133213033D01*
X136026819Y-130070175D02*
X136122057Y-129784461D01*
X136122057Y-129784461D02*
X136217295Y-129689223D01*
X136217295Y-129689223D02*
X136407771Y-129593985D01*
X136407771Y-129593985D02*
X136693485Y-129593985D01*
X136693485Y-129593985D02*
X136883961Y-129689223D01*
X136883961Y-129689223D02*
X136979200Y-129784461D01*
X136979200Y-129784461D02*
X137074438Y-129974937D01*
X137074438Y-129974937D02*
X137074438Y-130736842D01*
X137074438Y-130736842D02*
X135074438Y-130736842D01*
X135074438Y-130736842D02*
X135074438Y-130070175D01*
X135074438Y-130070175D02*
X135169676Y-129879699D01*
X135169676Y-129879699D02*
X135264914Y-129784461D01*
X135264914Y-129784461D02*
X135455390Y-129689223D01*
X135455390Y-129689223D02*
X135645866Y-129689223D01*
X135645866Y-129689223D02*
X135836342Y-129784461D01*
X135836342Y-129784461D02*
X135931580Y-129879699D01*
X135931580Y-129879699D02*
X136026819Y-130070175D01*
X136026819Y-130070175D02*
X136026819Y-130736842D01*
X135741104Y-127879699D02*
X137074438Y-127879699D01*
X135741104Y-128736842D02*
X136788723Y-128736842D01*
X136788723Y-128736842D02*
X136979200Y-128641604D01*
X136979200Y-128641604D02*
X137074438Y-128451128D01*
X137074438Y-128451128D02*
X137074438Y-128165413D01*
X137074438Y-128165413D02*
X136979200Y-127974937D01*
X136979200Y-127974937D02*
X136883961Y-127879699D01*
X136979200Y-127022556D02*
X137074438Y-126832080D01*
X137074438Y-126832080D02*
X137074438Y-126451128D01*
X137074438Y-126451128D02*
X136979200Y-126260651D01*
X136979200Y-126260651D02*
X136788723Y-126165413D01*
X136788723Y-126165413D02*
X136693485Y-126165413D01*
X136693485Y-126165413D02*
X136503009Y-126260651D01*
X136503009Y-126260651D02*
X136407771Y-126451128D01*
X136407771Y-126451128D02*
X136407771Y-126736842D01*
X136407771Y-126736842D02*
X136312533Y-126927318D01*
X136312533Y-126927318D02*
X136122057Y-127022556D01*
X136122057Y-127022556D02*
X136026819Y-127022556D01*
X136026819Y-127022556D02*
X135836342Y-126927318D01*
X135836342Y-126927318D02*
X135741104Y-126736842D01*
X135741104Y-126736842D02*
X135741104Y-126451128D01*
X135741104Y-126451128D02*
X135836342Y-126260651D01*
X137074438Y-123784460D02*
X135074438Y-123784460D01*
X135074438Y-123784460D02*
X135074438Y-123022555D01*
X135074438Y-123022555D02*
X135169676Y-122832079D01*
X135169676Y-122832079D02*
X135264914Y-122736841D01*
X135264914Y-122736841D02*
X135455390Y-122641603D01*
X135455390Y-122641603D02*
X135741104Y-122641603D01*
X135741104Y-122641603D02*
X135931580Y-122736841D01*
X135931580Y-122736841D02*
X136026819Y-122832079D01*
X136026819Y-122832079D02*
X136122057Y-123022555D01*
X136122057Y-123022555D02*
X136122057Y-123784460D01*
X137074438Y-120927317D02*
X136026819Y-120927317D01*
X136026819Y-120927317D02*
X135836342Y-121022555D01*
X135836342Y-121022555D02*
X135741104Y-121213031D01*
X135741104Y-121213031D02*
X135741104Y-121593984D01*
X135741104Y-121593984D02*
X135836342Y-121784460D01*
X136979200Y-120927317D02*
X137074438Y-121117793D01*
X137074438Y-121117793D02*
X137074438Y-121593984D01*
X137074438Y-121593984D02*
X136979200Y-121784460D01*
X136979200Y-121784460D02*
X136788723Y-121879698D01*
X136788723Y-121879698D02*
X136598247Y-121879698D01*
X136598247Y-121879698D02*
X136407771Y-121784460D01*
X136407771Y-121784460D02*
X136312533Y-121593984D01*
X136312533Y-121593984D02*
X136312533Y-121117793D01*
X136312533Y-121117793D02*
X136217295Y-120927317D01*
X135741104Y-119974936D02*
X137074438Y-119974936D01*
X135931580Y-119974936D02*
X135836342Y-119879698D01*
X135836342Y-119879698D02*
X135741104Y-119689222D01*
X135741104Y-119689222D02*
X135741104Y-119403507D01*
X135741104Y-119403507D02*
X135836342Y-119213031D01*
X135836342Y-119213031D02*
X136026819Y-119117793D01*
X136026819Y-119117793D02*
X137074438Y-119117793D01*
X136979200Y-117403507D02*
X137074438Y-117593983D01*
X137074438Y-117593983D02*
X137074438Y-117974936D01*
X137074438Y-117974936D02*
X136979200Y-118165412D01*
X136979200Y-118165412D02*
X136788723Y-118260650D01*
X136788723Y-118260650D02*
X136026819Y-118260650D01*
X136026819Y-118260650D02*
X135836342Y-118165412D01*
X135836342Y-118165412D02*
X135741104Y-117974936D01*
X135741104Y-117974936D02*
X135741104Y-117593983D01*
X135741104Y-117593983D02*
X135836342Y-117403507D01*
X135836342Y-117403507D02*
X136026819Y-117308269D01*
X136026819Y-117308269D02*
X136217295Y-117308269D01*
X136217295Y-117308269D02*
X136407771Y-118260650D01*
X137074438Y-116165412D02*
X136979200Y-116355888D01*
X136979200Y-116355888D02*
X136788723Y-116451126D01*
X136788723Y-116451126D02*
X135074438Y-116451126D01*
X140294438Y-140260652D02*
X138294438Y-140260652D01*
X139056342Y-140260652D02*
X138961104Y-140070176D01*
X138961104Y-140070176D02*
X138961104Y-139689223D01*
X138961104Y-139689223D02*
X139056342Y-139498747D01*
X139056342Y-139498747D02*
X139151580Y-139403509D01*
X139151580Y-139403509D02*
X139342057Y-139308271D01*
X139342057Y-139308271D02*
X139913485Y-139308271D01*
X139913485Y-139308271D02*
X140103961Y-139403509D01*
X140103961Y-139403509D02*
X140199200Y-139498747D01*
X140199200Y-139498747D02*
X140294438Y-139689223D01*
X140294438Y-139689223D02*
X140294438Y-140070176D01*
X140294438Y-140070176D02*
X140199200Y-140260652D01*
X138961104Y-138641604D02*
X140294438Y-138165414D01*
X138961104Y-137689223D02*
X140294438Y-138165414D01*
X140294438Y-138165414D02*
X140770628Y-138355890D01*
X140770628Y-138355890D02*
X140865866Y-138451128D01*
X140865866Y-138451128D02*
X140961104Y-138641604D01*
X138294438Y-134832079D02*
X139723009Y-134832079D01*
X139723009Y-134832079D02*
X140008723Y-134927318D01*
X140008723Y-134927318D02*
X140199200Y-135117794D01*
X140199200Y-135117794D02*
X140294438Y-135403508D01*
X140294438Y-135403508D02*
X140294438Y-135593984D01*
X140294438Y-133593984D02*
X140199200Y-133784460D01*
X140199200Y-133784460D02*
X140103961Y-133879698D01*
X140103961Y-133879698D02*
X139913485Y-133974936D01*
X139913485Y-133974936D02*
X139342057Y-133974936D01*
X139342057Y-133974936D02*
X139151580Y-133879698D01*
X139151580Y-133879698D02*
X139056342Y-133784460D01*
X139056342Y-133784460D02*
X138961104Y-133593984D01*
X138961104Y-133593984D02*
X138961104Y-133308269D01*
X138961104Y-133308269D02*
X139056342Y-133117793D01*
X139056342Y-133117793D02*
X139151580Y-133022555D01*
X139151580Y-133022555D02*
X139342057Y-132927317D01*
X139342057Y-132927317D02*
X139913485Y-132927317D01*
X139913485Y-132927317D02*
X140103961Y-133022555D01*
X140103961Y-133022555D02*
X140199200Y-133117793D01*
X140199200Y-133117793D02*
X140294438Y-133308269D01*
X140294438Y-133308269D02*
X140294438Y-133593984D01*
X138961104Y-132070174D02*
X140294438Y-132070174D01*
X139151580Y-132070174D02*
X139056342Y-131974936D01*
X139056342Y-131974936D02*
X138961104Y-131784460D01*
X138961104Y-131784460D02*
X138961104Y-131498745D01*
X138961104Y-131498745D02*
X139056342Y-131308269D01*
X139056342Y-131308269D02*
X139246819Y-131213031D01*
X139246819Y-131213031D02*
X140294438Y-131213031D01*
X138961104Y-129403507D02*
X140580152Y-129403507D01*
X140580152Y-129403507D02*
X140770628Y-129498745D01*
X140770628Y-129498745D02*
X140865866Y-129593983D01*
X140865866Y-129593983D02*
X140961104Y-129784460D01*
X140961104Y-129784460D02*
X140961104Y-130070174D01*
X140961104Y-130070174D02*
X140865866Y-130260650D01*
X140199200Y-129403507D02*
X140294438Y-129593983D01*
X140294438Y-129593983D02*
X140294438Y-129974936D01*
X140294438Y-129974936D02*
X140199200Y-130165412D01*
X140199200Y-130165412D02*
X140103961Y-130260650D01*
X140103961Y-130260650D02*
X139913485Y-130355888D01*
X139913485Y-130355888D02*
X139342057Y-130355888D01*
X139342057Y-130355888D02*
X139151580Y-130260650D01*
X139151580Y-130260650D02*
X139056342Y-130165412D01*
X139056342Y-130165412D02*
X138961104Y-129974936D01*
X138961104Y-129974936D02*
X138961104Y-129593983D01*
X138961104Y-129593983D02*
X139056342Y-129403507D01*
X140294438Y-128451126D02*
X138294438Y-128451126D01*
X140294438Y-127593983D02*
X139246819Y-127593983D01*
X139246819Y-127593983D02*
X139056342Y-127689221D01*
X139056342Y-127689221D02*
X138961104Y-127879697D01*
X138961104Y-127879697D02*
X138961104Y-128165412D01*
X138961104Y-128165412D02*
X139056342Y-128355888D01*
X139056342Y-128355888D02*
X139151580Y-128451126D01*
X138961104Y-126832078D02*
X140294438Y-126355888D01*
X138961104Y-125879697D02*
X140294438Y-126355888D01*
X140294438Y-126355888D02*
X140770628Y-126546364D01*
X140770628Y-126546364D02*
X140865866Y-126641602D01*
X140865866Y-126641602D02*
X140961104Y-126832078D01*
X138961104Y-124260649D02*
X140294438Y-124260649D01*
X138961104Y-125117792D02*
X140008723Y-125117792D01*
X140008723Y-125117792D02*
X140199200Y-125022554D01*
X140199200Y-125022554D02*
X140294438Y-124832078D01*
X140294438Y-124832078D02*
X140294438Y-124546363D01*
X140294438Y-124546363D02*
X140199200Y-124355887D01*
X140199200Y-124355887D02*
X140103961Y-124260649D01*
X138961104Y-123308268D02*
X140294438Y-123308268D01*
X139151580Y-123308268D02*
X139056342Y-123213030D01*
X139056342Y-123213030D02*
X138961104Y-123022554D01*
X138961104Y-123022554D02*
X138961104Y-122736839D01*
X138961104Y-122736839D02*
X139056342Y-122546363D01*
X139056342Y-122546363D02*
X139246819Y-122451125D01*
X139246819Y-122451125D02*
X140294438Y-122451125D01*
X138294438Y-119593982D02*
X138294438Y-119213029D01*
X138294438Y-119213029D02*
X138389676Y-119022553D01*
X138389676Y-119022553D02*
X138580152Y-118832077D01*
X138580152Y-118832077D02*
X138961104Y-118736839D01*
X138961104Y-118736839D02*
X139627771Y-118736839D01*
X139627771Y-118736839D02*
X140008723Y-118832077D01*
X140008723Y-118832077D02*
X140199200Y-119022553D01*
X140199200Y-119022553D02*
X140294438Y-119213029D01*
X140294438Y-119213029D02*
X140294438Y-119593982D01*
X140294438Y-119593982D02*
X140199200Y-119784458D01*
X140199200Y-119784458D02*
X140008723Y-119974934D01*
X140008723Y-119974934D02*
X139627771Y-120070172D01*
X139627771Y-120070172D02*
X138961104Y-120070172D01*
X138961104Y-120070172D02*
X138580152Y-119974934D01*
X138580152Y-119974934D02*
X138389676Y-119784458D01*
X138389676Y-119784458D02*
X138294438Y-119593982D01*
X140294438Y-117879696D02*
X138294438Y-117879696D01*
X140294438Y-117022553D02*
X139246819Y-117022553D01*
X139246819Y-117022553D02*
X139056342Y-117117791D01*
X139056342Y-117117791D02*
X138961104Y-117308267D01*
X138961104Y-117308267D02*
X138961104Y-117593982D01*
X138961104Y-117593982D02*
X139056342Y-117784458D01*
X139056342Y-117784458D02*
X139151580Y-117879696D01*
X141514438Y-140546366D02*
X143514438Y-139879700D01*
X143514438Y-139879700D02*
X141514438Y-139213033D01*
X143419200Y-137784461D02*
X143514438Y-137974937D01*
X143514438Y-137974937D02*
X143514438Y-138355890D01*
X143514438Y-138355890D02*
X143419200Y-138546366D01*
X143419200Y-138546366D02*
X143228723Y-138641604D01*
X143228723Y-138641604D02*
X142466819Y-138641604D01*
X142466819Y-138641604D02*
X142276342Y-138546366D01*
X142276342Y-138546366D02*
X142181104Y-138355890D01*
X142181104Y-138355890D02*
X142181104Y-137974937D01*
X142181104Y-137974937D02*
X142276342Y-137784461D01*
X142276342Y-137784461D02*
X142466819Y-137689223D01*
X142466819Y-137689223D02*
X142657295Y-137689223D01*
X142657295Y-137689223D02*
X142847771Y-138641604D01*
X143514438Y-136832080D02*
X142181104Y-136832080D01*
X142562057Y-136832080D02*
X142371580Y-136736842D01*
X142371580Y-136736842D02*
X142276342Y-136641604D01*
X142276342Y-136641604D02*
X142181104Y-136451128D01*
X142181104Y-136451128D02*
X142181104Y-136260651D01*
X143419200Y-135689223D02*
X143514438Y-135498747D01*
X143514438Y-135498747D02*
X143514438Y-135117795D01*
X143514438Y-135117795D02*
X143419200Y-134927318D01*
X143419200Y-134927318D02*
X143228723Y-134832080D01*
X143228723Y-134832080D02*
X143133485Y-134832080D01*
X143133485Y-134832080D02*
X142943009Y-134927318D01*
X142943009Y-134927318D02*
X142847771Y-135117795D01*
X142847771Y-135117795D02*
X142847771Y-135403509D01*
X142847771Y-135403509D02*
X142752533Y-135593985D01*
X142752533Y-135593985D02*
X142562057Y-135689223D01*
X142562057Y-135689223D02*
X142466819Y-135689223D01*
X142466819Y-135689223D02*
X142276342Y-135593985D01*
X142276342Y-135593985D02*
X142181104Y-135403509D01*
X142181104Y-135403509D02*
X142181104Y-135117795D01*
X142181104Y-135117795D02*
X142276342Y-134927318D01*
X143514438Y-133974937D02*
X142181104Y-133974937D01*
X141514438Y-133974937D02*
X141609676Y-134070175D01*
X141609676Y-134070175D02*
X141704914Y-133974937D01*
X141704914Y-133974937D02*
X141609676Y-133879699D01*
X141609676Y-133879699D02*
X141514438Y-133974937D01*
X141514438Y-133974937D02*
X141704914Y-133974937D01*
X143514438Y-132736842D02*
X143419200Y-132927318D01*
X143419200Y-132927318D02*
X143323961Y-133022556D01*
X143323961Y-133022556D02*
X143133485Y-133117794D01*
X143133485Y-133117794D02*
X142562057Y-133117794D01*
X142562057Y-133117794D02*
X142371580Y-133022556D01*
X142371580Y-133022556D02*
X142276342Y-132927318D01*
X142276342Y-132927318D02*
X142181104Y-132736842D01*
X142181104Y-132736842D02*
X142181104Y-132451127D01*
X142181104Y-132451127D02*
X142276342Y-132260651D01*
X142276342Y-132260651D02*
X142371580Y-132165413D01*
X142371580Y-132165413D02*
X142562057Y-132070175D01*
X142562057Y-132070175D02*
X143133485Y-132070175D01*
X143133485Y-132070175D02*
X143323961Y-132165413D01*
X143323961Y-132165413D02*
X143419200Y-132260651D01*
X143419200Y-132260651D02*
X143514438Y-132451127D01*
X143514438Y-132451127D02*
X143514438Y-132736842D01*
X142181104Y-131213032D02*
X143514438Y-131213032D01*
X142371580Y-131213032D02*
X142276342Y-131117794D01*
X142276342Y-131117794D02*
X142181104Y-130927318D01*
X142181104Y-130927318D02*
X142181104Y-130641603D01*
X142181104Y-130641603D02*
X142276342Y-130451127D01*
X142276342Y-130451127D02*
X142466819Y-130355889D01*
X142466819Y-130355889D02*
X143514438Y-130355889D01*
X143514438Y-126832079D02*
X143514438Y-127974936D01*
X143514438Y-127403508D02*
X141514438Y-127403508D01*
X141514438Y-127403508D02*
X141800152Y-127593984D01*
X141800152Y-127593984D02*
X141990628Y-127784460D01*
X141990628Y-127784460D02*
X142085866Y-127974936D01*
X143323961Y-125974936D02*
X143419200Y-125879698D01*
X143419200Y-125879698D02*
X143514438Y-125974936D01*
X143514438Y-125974936D02*
X143419200Y-126070174D01*
X143419200Y-126070174D02*
X143323961Y-125974936D01*
X143323961Y-125974936D02*
X143514438Y-125974936D01*
X141514438Y-124641603D02*
X141514438Y-124451126D01*
X141514438Y-124451126D02*
X141609676Y-124260650D01*
X141609676Y-124260650D02*
X141704914Y-124165412D01*
X141704914Y-124165412D02*
X141895390Y-124070174D01*
X141895390Y-124070174D02*
X142276342Y-123974936D01*
X142276342Y-123974936D02*
X142752533Y-123974936D01*
X142752533Y-123974936D02*
X143133485Y-124070174D01*
X143133485Y-124070174D02*
X143323961Y-124165412D01*
X143323961Y-124165412D02*
X143419200Y-124260650D01*
X143419200Y-124260650D02*
X143514438Y-124451126D01*
X143514438Y-124451126D02*
X143514438Y-124641603D01*
X143514438Y-124641603D02*
X143419200Y-124832079D01*
X143419200Y-124832079D02*
X143323961Y-124927317D01*
X143323961Y-124927317D02*
X143133485Y-125022555D01*
X143133485Y-125022555D02*
X142752533Y-125117793D01*
X142752533Y-125117793D02*
X142276342Y-125117793D01*
X142276342Y-125117793D02*
X141895390Y-125022555D01*
X141895390Y-125022555D02*
X141704914Y-124927317D01*
X141704914Y-124927317D02*
X141609676Y-124832079D01*
X141609676Y-124832079D02*
X141514438Y-124641603D01*
X144276342Y-121022554D02*
X144181104Y-121117793D01*
X144181104Y-121117793D02*
X143895390Y-121308269D01*
X143895390Y-121308269D02*
X143704914Y-121403507D01*
X143704914Y-121403507D02*
X143419200Y-121498745D01*
X143419200Y-121498745D02*
X142943009Y-121593983D01*
X142943009Y-121593983D02*
X142562057Y-121593983D01*
X142562057Y-121593983D02*
X142085866Y-121498745D01*
X142085866Y-121498745D02*
X141800152Y-121403507D01*
X141800152Y-121403507D02*
X141609676Y-121308269D01*
X141609676Y-121308269D02*
X141323961Y-121117793D01*
X141323961Y-121117793D02*
X141228723Y-121022554D01*
X141704914Y-120355888D02*
X141609676Y-120260650D01*
X141609676Y-120260650D02*
X141514438Y-120070174D01*
X141514438Y-120070174D02*
X141514438Y-119593983D01*
X141514438Y-119593983D02*
X141609676Y-119403507D01*
X141609676Y-119403507D02*
X141704914Y-119308269D01*
X141704914Y-119308269D02*
X141895390Y-119213031D01*
X141895390Y-119213031D02*
X142085866Y-119213031D01*
X142085866Y-119213031D02*
X142371580Y-119308269D01*
X142371580Y-119308269D02*
X143514438Y-120451126D01*
X143514438Y-120451126D02*
X143514438Y-119213031D01*
X141514438Y-117974936D02*
X141514438Y-117784459D01*
X141514438Y-117784459D02*
X141609676Y-117593983D01*
X141609676Y-117593983D02*
X141704914Y-117498745D01*
X141704914Y-117498745D02*
X141895390Y-117403507D01*
X141895390Y-117403507D02*
X142276342Y-117308269D01*
X142276342Y-117308269D02*
X142752533Y-117308269D01*
X142752533Y-117308269D02*
X143133485Y-117403507D01*
X143133485Y-117403507D02*
X143323961Y-117498745D01*
X143323961Y-117498745D02*
X143419200Y-117593983D01*
X143419200Y-117593983D02*
X143514438Y-117784459D01*
X143514438Y-117784459D02*
X143514438Y-117974936D01*
X143514438Y-117974936D02*
X143419200Y-118165412D01*
X143419200Y-118165412D02*
X143323961Y-118260650D01*
X143323961Y-118260650D02*
X143133485Y-118355888D01*
X143133485Y-118355888D02*
X142752533Y-118451126D01*
X142752533Y-118451126D02*
X142276342Y-118451126D01*
X142276342Y-118451126D02*
X141895390Y-118355888D01*
X141895390Y-118355888D02*
X141704914Y-118260650D01*
X141704914Y-118260650D02*
X141609676Y-118165412D01*
X141609676Y-118165412D02*
X141514438Y-117974936D01*
X141704914Y-116546364D02*
X141609676Y-116451126D01*
X141609676Y-116451126D02*
X141514438Y-116260650D01*
X141514438Y-116260650D02*
X141514438Y-115784459D01*
X141514438Y-115784459D02*
X141609676Y-115593983D01*
X141609676Y-115593983D02*
X141704914Y-115498745D01*
X141704914Y-115498745D02*
X141895390Y-115403507D01*
X141895390Y-115403507D02*
X142085866Y-115403507D01*
X142085866Y-115403507D02*
X142371580Y-115498745D01*
X142371580Y-115498745D02*
X143514438Y-116641602D01*
X143514438Y-116641602D02*
X143514438Y-115403507D01*
X141514438Y-114736840D02*
X141514438Y-113498745D01*
X141514438Y-113498745D02*
X142276342Y-114165412D01*
X142276342Y-114165412D02*
X142276342Y-113879697D01*
X142276342Y-113879697D02*
X142371580Y-113689221D01*
X142371580Y-113689221D02*
X142466819Y-113593983D01*
X142466819Y-113593983D02*
X142657295Y-113498745D01*
X142657295Y-113498745D02*
X143133485Y-113498745D01*
X143133485Y-113498745D02*
X143323961Y-113593983D01*
X143323961Y-113593983D02*
X143419200Y-113689221D01*
X143419200Y-113689221D02*
X143514438Y-113879697D01*
X143514438Y-113879697D02*
X143514438Y-114451126D01*
X143514438Y-114451126D02*
X143419200Y-114641602D01*
X143419200Y-114641602D02*
X143323961Y-114736840D01*
X143514438Y-111593983D02*
X143514438Y-112736840D01*
X143514438Y-112165412D02*
X141514438Y-112165412D01*
X141514438Y-112165412D02*
X141800152Y-112355888D01*
X141800152Y-112355888D02*
X141990628Y-112546364D01*
X141990628Y-112546364D02*
X142085866Y-112736840D01*
X143514438Y-109689221D02*
X143514438Y-110832078D01*
X143514438Y-110260650D02*
X141514438Y-110260650D01*
X141514438Y-110260650D02*
X141800152Y-110451126D01*
X141800152Y-110451126D02*
X141990628Y-110641602D01*
X141990628Y-110641602D02*
X142085866Y-110832078D01*
X141514438Y-109022554D02*
X141514438Y-107784459D01*
X141514438Y-107784459D02*
X142276342Y-108451126D01*
X142276342Y-108451126D02*
X142276342Y-108165411D01*
X142276342Y-108165411D02*
X142371580Y-107974935D01*
X142371580Y-107974935D02*
X142466819Y-107879697D01*
X142466819Y-107879697D02*
X142657295Y-107784459D01*
X142657295Y-107784459D02*
X143133485Y-107784459D01*
X143133485Y-107784459D02*
X143323961Y-107879697D01*
X143323961Y-107879697D02*
X143419200Y-107974935D01*
X143419200Y-107974935D02*
X143514438Y-108165411D01*
X143514438Y-108165411D02*
X143514438Y-108736840D01*
X143514438Y-108736840D02*
X143419200Y-108927316D01*
X143419200Y-108927316D02*
X143323961Y-109022554D01*
X141514438Y-106546364D02*
X141514438Y-106355887D01*
X141514438Y-106355887D02*
X141609676Y-106165411D01*
X141609676Y-106165411D02*
X141704914Y-106070173D01*
X141704914Y-106070173D02*
X141895390Y-105974935D01*
X141895390Y-105974935D02*
X142276342Y-105879697D01*
X142276342Y-105879697D02*
X142752533Y-105879697D01*
X142752533Y-105879697D02*
X143133485Y-105974935D01*
X143133485Y-105974935D02*
X143323961Y-106070173D01*
X143323961Y-106070173D02*
X143419200Y-106165411D01*
X143419200Y-106165411D02*
X143514438Y-106355887D01*
X143514438Y-106355887D02*
X143514438Y-106546364D01*
X143514438Y-106546364D02*
X143419200Y-106736840D01*
X143419200Y-106736840D02*
X143323961Y-106832078D01*
X143323961Y-106832078D02*
X143133485Y-106927316D01*
X143133485Y-106927316D02*
X142752533Y-107022554D01*
X142752533Y-107022554D02*
X142276342Y-107022554D01*
X142276342Y-107022554D02*
X141895390Y-106927316D01*
X141895390Y-106927316D02*
X141704914Y-106832078D01*
X141704914Y-106832078D02*
X141609676Y-106736840D01*
X141609676Y-106736840D02*
X141514438Y-106546364D01*
X144276342Y-105213030D02*
X144181104Y-105117792D01*
X144181104Y-105117792D02*
X143895390Y-104927316D01*
X143895390Y-104927316D02*
X143704914Y-104832078D01*
X143704914Y-104832078D02*
X143419200Y-104736840D01*
X143419200Y-104736840D02*
X142943009Y-104641602D01*
X142943009Y-104641602D02*
X142562057Y-104641602D01*
X142562057Y-104641602D02*
X142085866Y-104736840D01*
X142085866Y-104736840D02*
X141800152Y-104832078D01*
X141800152Y-104832078D02*
X141609676Y-104927316D01*
X141609676Y-104927316D02*
X141323961Y-105117792D01*
X141323961Y-105117792D02*
X141228723Y-105213030D01*
X144734438Y-139689223D02*
X146163009Y-139689223D01*
X146163009Y-139689223D02*
X146448723Y-139784462D01*
X146448723Y-139784462D02*
X146639200Y-139974938D01*
X146639200Y-139974938D02*
X146734438Y-140260652D01*
X146734438Y-140260652D02*
X146734438Y-140451128D01*
X146734438Y-137784461D02*
X146734438Y-138736842D01*
X146734438Y-138736842D02*
X144734438Y-138736842D01*
X146543961Y-135974937D02*
X146639200Y-136070175D01*
X146639200Y-136070175D02*
X146734438Y-136355889D01*
X146734438Y-136355889D02*
X146734438Y-136546365D01*
X146734438Y-136546365D02*
X146639200Y-136832080D01*
X146639200Y-136832080D02*
X146448723Y-137022556D01*
X146448723Y-137022556D02*
X146258247Y-137117794D01*
X146258247Y-137117794D02*
X145877295Y-137213032D01*
X145877295Y-137213032D02*
X145591580Y-137213032D01*
X145591580Y-137213032D02*
X145210628Y-137117794D01*
X145210628Y-137117794D02*
X145020152Y-137022556D01*
X145020152Y-137022556D02*
X144829676Y-136832080D01*
X144829676Y-136832080D02*
X144734438Y-136546365D01*
X144734438Y-136546365D02*
X144734438Y-136355889D01*
X144734438Y-136355889D02*
X144829676Y-136070175D01*
X144829676Y-136070175D02*
X144924914Y-135974937D01*
X144734438Y-134546365D02*
X146163009Y-134546365D01*
X146163009Y-134546365D02*
X146448723Y-134641604D01*
X146448723Y-134641604D02*
X146639200Y-134832080D01*
X146639200Y-134832080D02*
X146734438Y-135117794D01*
X146734438Y-135117794D02*
X146734438Y-135308270D01*
X146734438Y-132641603D02*
X146734438Y-133593984D01*
X146734438Y-133593984D02*
X144734438Y-133593984D01*
X146543961Y-130832079D02*
X146639200Y-130927317D01*
X146639200Y-130927317D02*
X146734438Y-131213031D01*
X146734438Y-131213031D02*
X146734438Y-131403507D01*
X146734438Y-131403507D02*
X146639200Y-131689222D01*
X146639200Y-131689222D02*
X146448723Y-131879698D01*
X146448723Y-131879698D02*
X146258247Y-131974936D01*
X146258247Y-131974936D02*
X145877295Y-132070174D01*
X145877295Y-132070174D02*
X145591580Y-132070174D01*
X145591580Y-132070174D02*
X145210628Y-131974936D01*
X145210628Y-131974936D02*
X145020152Y-131879698D01*
X145020152Y-131879698D02*
X144829676Y-131689222D01*
X144829676Y-131689222D02*
X144734438Y-131403507D01*
X144734438Y-131403507D02*
X144734438Y-131213031D01*
X144734438Y-131213031D02*
X144829676Y-130927317D01*
X144829676Y-130927317D02*
X144924914Y-130832079D01*
X144734438Y-129403507D02*
X146163009Y-129403507D01*
X146163009Y-129403507D02*
X146448723Y-129498746D01*
X146448723Y-129498746D02*
X146639200Y-129689222D01*
X146639200Y-129689222D02*
X146734438Y-129974936D01*
X146734438Y-129974936D02*
X146734438Y-130165412D01*
X146734438Y-127498745D02*
X146734438Y-128451126D01*
X146734438Y-128451126D02*
X144734438Y-128451126D01*
X146543961Y-125689221D02*
X146639200Y-125784459D01*
X146639200Y-125784459D02*
X146734438Y-126070173D01*
X146734438Y-126070173D02*
X146734438Y-126260649D01*
X146734438Y-126260649D02*
X146639200Y-126546364D01*
X146639200Y-126546364D02*
X146448723Y-126736840D01*
X146448723Y-126736840D02*
X146258247Y-126832078D01*
X146258247Y-126832078D02*
X145877295Y-126927316D01*
X145877295Y-126927316D02*
X145591580Y-126927316D01*
X145591580Y-126927316D02*
X145210628Y-126832078D01*
X145210628Y-126832078D02*
X145020152Y-126736840D01*
X145020152Y-126736840D02*
X144829676Y-126546364D01*
X144829676Y-126546364D02*
X144734438Y-126260649D01*
X144734438Y-126260649D02*
X144734438Y-126070173D01*
X144734438Y-126070173D02*
X144829676Y-125784459D01*
X144829676Y-125784459D02*
X144924914Y-125689221D01*
X144734438Y-124260649D02*
X146163009Y-124260649D01*
X146163009Y-124260649D02*
X146448723Y-124355888D01*
X146448723Y-124355888D02*
X146639200Y-124546364D01*
X146639200Y-124546364D02*
X146734438Y-124832078D01*
X146734438Y-124832078D02*
X146734438Y-125022554D01*
X146734438Y-122355887D02*
X146734438Y-123308268D01*
X146734438Y-123308268D02*
X144734438Y-123308268D01*
X146543961Y-120546363D02*
X146639200Y-120641601D01*
X146639200Y-120641601D02*
X146734438Y-120927315D01*
X146734438Y-120927315D02*
X146734438Y-121117791D01*
X146734438Y-121117791D02*
X146639200Y-121403506D01*
X146639200Y-121403506D02*
X146448723Y-121593982D01*
X146448723Y-121593982D02*
X146258247Y-121689220D01*
X146258247Y-121689220D02*
X145877295Y-121784458D01*
X145877295Y-121784458D02*
X145591580Y-121784458D01*
X145591580Y-121784458D02*
X145210628Y-121689220D01*
X145210628Y-121689220D02*
X145020152Y-121593982D01*
X145020152Y-121593982D02*
X144829676Y-121403506D01*
X144829676Y-121403506D02*
X144734438Y-121117791D01*
X144734438Y-121117791D02*
X144734438Y-120927315D01*
X144734438Y-120927315D02*
X144829676Y-120641601D01*
X144829676Y-120641601D02*
X144924914Y-120546363D01*
D11*
X117234819Y-90432493D02*
X117234819Y-90242017D01*
X117234819Y-90242017D02*
X117282438Y-90146779D01*
X117282438Y-90146779D02*
X117377676Y-90051541D01*
X117377676Y-90051541D02*
X117568152Y-90003922D01*
X117568152Y-90003922D02*
X117901485Y-90003922D01*
X117901485Y-90003922D02*
X118091961Y-90051541D01*
X118091961Y-90051541D02*
X118187200Y-90146779D01*
X118187200Y-90146779D02*
X118234819Y-90242017D01*
X118234819Y-90242017D02*
X118234819Y-90432493D01*
X118234819Y-90432493D02*
X118187200Y-90527731D01*
X118187200Y-90527731D02*
X118091961Y-90622969D01*
X118091961Y-90622969D02*
X117901485Y-90670588D01*
X117901485Y-90670588D02*
X117568152Y-90670588D01*
X117568152Y-90670588D02*
X117377676Y-90622969D01*
X117377676Y-90622969D02*
X117282438Y-90527731D01*
X117282438Y-90527731D02*
X117234819Y-90432493D01*
X117711009Y-89575350D02*
X117711009Y-89242017D01*
X118234819Y-89099160D02*
X118234819Y-89575350D01*
X118234819Y-89575350D02*
X117234819Y-89575350D01*
X117234819Y-89575350D02*
X117234819Y-89099160D01*
X115599580Y-90908684D02*
X115647200Y-90956303D01*
X115647200Y-90956303D02*
X115694819Y-91099160D01*
X115694819Y-91099160D02*
X115694819Y-91194398D01*
X115694819Y-91194398D02*
X115647200Y-91337255D01*
X115647200Y-91337255D02*
X115551961Y-91432493D01*
X115551961Y-91432493D02*
X115456723Y-91480112D01*
X115456723Y-91480112D02*
X115266247Y-91527731D01*
X115266247Y-91527731D02*
X115123390Y-91527731D01*
X115123390Y-91527731D02*
X114932914Y-91480112D01*
X114932914Y-91480112D02*
X114837676Y-91432493D01*
X114837676Y-91432493D02*
X114742438Y-91337255D01*
X114742438Y-91337255D02*
X114694819Y-91194398D01*
X114694819Y-91194398D02*
X114694819Y-91099160D01*
X114694819Y-91099160D02*
X114742438Y-90956303D01*
X114742438Y-90956303D02*
X114790057Y-90908684D01*
X115694819Y-90003922D02*
X115694819Y-90480112D01*
X115694819Y-90480112D02*
X114694819Y-90480112D01*
X115694819Y-89670588D02*
X114694819Y-89670588D01*
X115694819Y-89099160D02*
X115123390Y-89527731D01*
X114694819Y-89099160D02*
X115266247Y-89670588D01*
X113059580Y-89099160D02*
X113107200Y-89146779D01*
X113107200Y-89146779D02*
X113154819Y-89289636D01*
X113154819Y-89289636D02*
X113154819Y-89384874D01*
X113154819Y-89384874D02*
X113107200Y-89527731D01*
X113107200Y-89527731D02*
X113011961Y-89622969D01*
X113011961Y-89622969D02*
X112916723Y-89670588D01*
X112916723Y-89670588D02*
X112726247Y-89718207D01*
X112726247Y-89718207D02*
X112583390Y-89718207D01*
X112583390Y-89718207D02*
X112392914Y-89670588D01*
X112392914Y-89670588D02*
X112297676Y-89622969D01*
X112297676Y-89622969D02*
X112202438Y-89527731D01*
X112202438Y-89527731D02*
X112154819Y-89384874D01*
X112154819Y-89384874D02*
X112154819Y-89289636D01*
X112154819Y-89289636D02*
X112202438Y-89146779D01*
X112202438Y-89146779D02*
X112250057Y-89099160D01*
X110329104Y-89575350D02*
X110329104Y-89099160D01*
X110614819Y-89670588D02*
X109614819Y-89337255D01*
X109614819Y-89337255D02*
X110614819Y-89003922D01*
X107551009Y-90289636D02*
X107598628Y-90146779D01*
X107598628Y-90146779D02*
X107646247Y-90099160D01*
X107646247Y-90099160D02*
X107741485Y-90051541D01*
X107741485Y-90051541D02*
X107884342Y-90051541D01*
X107884342Y-90051541D02*
X107979580Y-90099160D01*
X107979580Y-90099160D02*
X108027200Y-90146779D01*
X108027200Y-90146779D02*
X108074819Y-90242017D01*
X108074819Y-90242017D02*
X108074819Y-90622969D01*
X108074819Y-90622969D02*
X107074819Y-90622969D01*
X107074819Y-90622969D02*
X107074819Y-90289636D01*
X107074819Y-90289636D02*
X107122438Y-90194398D01*
X107122438Y-90194398D02*
X107170057Y-90146779D01*
X107170057Y-90146779D02*
X107265295Y-90099160D01*
X107265295Y-90099160D02*
X107360533Y-90099160D01*
X107360533Y-90099160D02*
X107455771Y-90146779D01*
X107455771Y-90146779D02*
X107503390Y-90194398D01*
X107503390Y-90194398D02*
X107551009Y-90289636D01*
X107551009Y-90289636D02*
X107551009Y-90622969D01*
X107170057Y-89670588D02*
X107122438Y-89622969D01*
X107122438Y-89622969D02*
X107074819Y-89527731D01*
X107074819Y-89527731D02*
X107074819Y-89289636D01*
X107074819Y-89289636D02*
X107122438Y-89194398D01*
X107122438Y-89194398D02*
X107170057Y-89146779D01*
X107170057Y-89146779D02*
X107265295Y-89099160D01*
X107265295Y-89099160D02*
X107360533Y-89099160D01*
X107360533Y-89099160D02*
X107503390Y-89146779D01*
X107503390Y-89146779D02*
X108074819Y-89718207D01*
X108074819Y-89718207D02*
X108074819Y-89099160D01*
X105534819Y-90051541D02*
X105058628Y-90384874D01*
X105534819Y-90622969D02*
X104534819Y-90622969D01*
X104534819Y-90622969D02*
X104534819Y-90242017D01*
X104534819Y-90242017D02*
X104582438Y-90146779D01*
X104582438Y-90146779D02*
X104630057Y-90099160D01*
X104630057Y-90099160D02*
X104725295Y-90051541D01*
X104725295Y-90051541D02*
X104868152Y-90051541D01*
X104868152Y-90051541D02*
X104963390Y-90099160D01*
X104963390Y-90099160D02*
X105011009Y-90146779D01*
X105011009Y-90146779D02*
X105058628Y-90242017D01*
X105058628Y-90242017D02*
X105058628Y-90622969D01*
X104630057Y-89670588D02*
X104582438Y-89622969D01*
X104582438Y-89622969D02*
X104534819Y-89527731D01*
X104534819Y-89527731D02*
X104534819Y-89289636D01*
X104534819Y-89289636D02*
X104582438Y-89194398D01*
X104582438Y-89194398D02*
X104630057Y-89146779D01*
X104630057Y-89146779D02*
X104725295Y-89099160D01*
X104725295Y-89099160D02*
X104820533Y-89099160D01*
X104820533Y-89099160D02*
X104963390Y-89146779D01*
X104963390Y-89146779D02*
X105534819Y-89718207D01*
X105534819Y-89718207D02*
X105534819Y-89099160D01*
X100454819Y-90921541D02*
X99978628Y-91254874D01*
X100454819Y-91492969D02*
X99454819Y-91492969D01*
X99454819Y-91492969D02*
X99454819Y-91112017D01*
X99454819Y-91112017D02*
X99502438Y-91016779D01*
X99502438Y-91016779D02*
X99550057Y-90969160D01*
X99550057Y-90969160D02*
X99645295Y-90921541D01*
X99645295Y-90921541D02*
X99788152Y-90921541D01*
X99788152Y-90921541D02*
X99883390Y-90969160D01*
X99883390Y-90969160D02*
X99931009Y-91016779D01*
X99931009Y-91016779D02*
X99978628Y-91112017D01*
X99978628Y-91112017D02*
X99978628Y-91492969D01*
X100454819Y-89969160D02*
X100454819Y-90540588D01*
X100454819Y-90254874D02*
X99454819Y-90254874D01*
X99454819Y-90254874D02*
X99597676Y-90350112D01*
X99597676Y-90350112D02*
X99692914Y-90445350D01*
X99692914Y-90445350D02*
X99740533Y-90540588D01*
X102471009Y-90289636D02*
X102518628Y-90146779D01*
X102518628Y-90146779D02*
X102566247Y-90099160D01*
X102566247Y-90099160D02*
X102661485Y-90051541D01*
X102661485Y-90051541D02*
X102804342Y-90051541D01*
X102804342Y-90051541D02*
X102899580Y-90099160D01*
X102899580Y-90099160D02*
X102947200Y-90146779D01*
X102947200Y-90146779D02*
X102994819Y-90242017D01*
X102994819Y-90242017D02*
X102994819Y-90622969D01*
X102994819Y-90622969D02*
X101994819Y-90622969D01*
X101994819Y-90622969D02*
X101994819Y-90289636D01*
X101994819Y-90289636D02*
X102042438Y-90194398D01*
X102042438Y-90194398D02*
X102090057Y-90146779D01*
X102090057Y-90146779D02*
X102185295Y-90099160D01*
X102185295Y-90099160D02*
X102280533Y-90099160D01*
X102280533Y-90099160D02*
X102375771Y-90146779D01*
X102375771Y-90146779D02*
X102423390Y-90194398D01*
X102423390Y-90194398D02*
X102471009Y-90289636D01*
X102471009Y-90289636D02*
X102471009Y-90622969D01*
X102994819Y-89099160D02*
X102994819Y-89670588D01*
X102994819Y-89384874D02*
X101994819Y-89384874D01*
X101994819Y-89384874D02*
X102137676Y-89480112D01*
X102137676Y-89480112D02*
X102232914Y-89575350D01*
X102232914Y-89575350D02*
X102280533Y-89670588D01*
X117282438Y-77789411D02*
X117234819Y-77884649D01*
X117234819Y-77884649D02*
X117234819Y-78027506D01*
X117234819Y-78027506D02*
X117282438Y-78170363D01*
X117282438Y-78170363D02*
X117377676Y-78265601D01*
X117377676Y-78265601D02*
X117472914Y-78313220D01*
X117472914Y-78313220D02*
X117663390Y-78360839D01*
X117663390Y-78360839D02*
X117806247Y-78360839D01*
X117806247Y-78360839D02*
X117996723Y-78313220D01*
X117996723Y-78313220D02*
X118091961Y-78265601D01*
X118091961Y-78265601D02*
X118187200Y-78170363D01*
X118187200Y-78170363D02*
X118234819Y-78027506D01*
X118234819Y-78027506D02*
X118234819Y-77932268D01*
X118234819Y-77932268D02*
X118187200Y-77789411D01*
X118187200Y-77789411D02*
X118139580Y-77741792D01*
X118139580Y-77741792D02*
X117806247Y-77741792D01*
X117806247Y-77741792D02*
X117806247Y-77932268D01*
X118234819Y-77313220D02*
X117234819Y-77313220D01*
X117234819Y-77313220D02*
X118234819Y-76741792D01*
X118234819Y-76741792D02*
X117234819Y-76741792D01*
X118234819Y-76265601D02*
X117234819Y-76265601D01*
X117234819Y-76265601D02*
X117234819Y-76027506D01*
X117234819Y-76027506D02*
X117282438Y-75884649D01*
X117282438Y-75884649D02*
X117377676Y-75789411D01*
X117377676Y-75789411D02*
X117472914Y-75741792D01*
X117472914Y-75741792D02*
X117663390Y-75694173D01*
X117663390Y-75694173D02*
X117806247Y-75694173D01*
X117806247Y-75694173D02*
X117996723Y-75741792D01*
X117996723Y-75741792D02*
X118091961Y-75789411D01*
X118091961Y-75789411D02*
X118187200Y-75884649D01*
X118187200Y-75884649D02*
X118234819Y-76027506D01*
X118234819Y-76027506D02*
X118234819Y-76265601D01*
X115694819Y-77837030D02*
X115694819Y-78313220D01*
X115694819Y-78313220D02*
X114694819Y-78313220D01*
X115409104Y-77551315D02*
X115409104Y-77075125D01*
X115694819Y-77646553D02*
X114694819Y-77313220D01*
X114694819Y-77313220D02*
X115694819Y-76979887D01*
X114694819Y-76789410D02*
X114694819Y-76217982D01*
X115694819Y-76503696D02*
X114694819Y-76503696D01*
X113154819Y-78313220D02*
X112154819Y-78313220D01*
X112154819Y-78313220D02*
X112154819Y-78075125D01*
X112154819Y-78075125D02*
X112202438Y-77932268D01*
X112202438Y-77932268D02*
X112297676Y-77837030D01*
X112297676Y-77837030D02*
X112392914Y-77789411D01*
X112392914Y-77789411D02*
X112583390Y-77741792D01*
X112583390Y-77741792D02*
X112726247Y-77741792D01*
X112726247Y-77741792D02*
X112916723Y-77789411D01*
X112916723Y-77789411D02*
X113011961Y-77837030D01*
X113011961Y-77837030D02*
X113107200Y-77932268D01*
X113107200Y-77932268D02*
X113154819Y-78075125D01*
X113154819Y-78075125D02*
X113154819Y-78313220D01*
X110091009Y-77979887D02*
X110138628Y-77837030D01*
X110138628Y-77837030D02*
X110186247Y-77789411D01*
X110186247Y-77789411D02*
X110281485Y-77741792D01*
X110281485Y-77741792D02*
X110424342Y-77741792D01*
X110424342Y-77741792D02*
X110519580Y-77789411D01*
X110519580Y-77789411D02*
X110567200Y-77837030D01*
X110567200Y-77837030D02*
X110614819Y-77932268D01*
X110614819Y-77932268D02*
X110614819Y-78313220D01*
X110614819Y-78313220D02*
X109614819Y-78313220D01*
X109614819Y-78313220D02*
X109614819Y-77979887D01*
X109614819Y-77979887D02*
X109662438Y-77884649D01*
X109662438Y-77884649D02*
X109710057Y-77837030D01*
X109710057Y-77837030D02*
X109805295Y-77789411D01*
X109805295Y-77789411D02*
X109900533Y-77789411D01*
X109900533Y-77789411D02*
X109995771Y-77837030D01*
X109995771Y-77837030D02*
X110043390Y-77884649D01*
X110043390Y-77884649D02*
X110091009Y-77979887D01*
X110091009Y-77979887D02*
X110091009Y-78313220D01*
X107122438Y-77789411D02*
X107074819Y-77884649D01*
X107074819Y-77884649D02*
X107074819Y-78027506D01*
X107074819Y-78027506D02*
X107122438Y-78170363D01*
X107122438Y-78170363D02*
X107217676Y-78265601D01*
X107217676Y-78265601D02*
X107312914Y-78313220D01*
X107312914Y-78313220D02*
X107503390Y-78360839D01*
X107503390Y-78360839D02*
X107646247Y-78360839D01*
X107646247Y-78360839D02*
X107836723Y-78313220D01*
X107836723Y-78313220D02*
X107931961Y-78265601D01*
X107931961Y-78265601D02*
X108027200Y-78170363D01*
X108027200Y-78170363D02*
X108074819Y-78027506D01*
X108074819Y-78027506D02*
X108074819Y-77932268D01*
X108074819Y-77932268D02*
X108027200Y-77789411D01*
X108027200Y-77789411D02*
X107979580Y-77741792D01*
X107979580Y-77741792D02*
X107646247Y-77741792D01*
X107646247Y-77741792D02*
X107646247Y-77932268D01*
X108074819Y-77313220D02*
X107074819Y-77313220D01*
X107074819Y-77313220D02*
X108074819Y-76741792D01*
X108074819Y-76741792D02*
X107074819Y-76741792D01*
X108074819Y-76265601D02*
X107074819Y-76265601D01*
X107074819Y-76265601D02*
X107074819Y-76027506D01*
X107074819Y-76027506D02*
X107122438Y-75884649D01*
X107122438Y-75884649D02*
X107217676Y-75789411D01*
X107217676Y-75789411D02*
X107312914Y-75741792D01*
X107312914Y-75741792D02*
X107503390Y-75694173D01*
X107503390Y-75694173D02*
X107646247Y-75694173D01*
X107646247Y-75694173D02*
X107836723Y-75741792D01*
X107836723Y-75741792D02*
X107931961Y-75789411D01*
X107931961Y-75789411D02*
X108027200Y-75884649D01*
X108027200Y-75884649D02*
X108074819Y-76027506D01*
X108074819Y-76027506D02*
X108074819Y-76265601D01*
X104582438Y-77789411D02*
X104534819Y-77884649D01*
X104534819Y-77884649D02*
X104534819Y-78027506D01*
X104534819Y-78027506D02*
X104582438Y-78170363D01*
X104582438Y-78170363D02*
X104677676Y-78265601D01*
X104677676Y-78265601D02*
X104772914Y-78313220D01*
X104772914Y-78313220D02*
X104963390Y-78360839D01*
X104963390Y-78360839D02*
X105106247Y-78360839D01*
X105106247Y-78360839D02*
X105296723Y-78313220D01*
X105296723Y-78313220D02*
X105391961Y-78265601D01*
X105391961Y-78265601D02*
X105487200Y-78170363D01*
X105487200Y-78170363D02*
X105534819Y-78027506D01*
X105534819Y-78027506D02*
X105534819Y-77932268D01*
X105534819Y-77932268D02*
X105487200Y-77789411D01*
X105487200Y-77789411D02*
X105439580Y-77741792D01*
X105439580Y-77741792D02*
X105106247Y-77741792D01*
X105106247Y-77741792D02*
X105106247Y-77932268D01*
X104630057Y-77360839D02*
X104582438Y-77313220D01*
X104582438Y-77313220D02*
X104534819Y-77217982D01*
X104534819Y-77217982D02*
X104534819Y-76979887D01*
X104534819Y-76979887D02*
X104582438Y-76884649D01*
X104582438Y-76884649D02*
X104630057Y-76837030D01*
X104630057Y-76837030D02*
X104725295Y-76789411D01*
X104725295Y-76789411D02*
X104820533Y-76789411D01*
X104820533Y-76789411D02*
X104963390Y-76837030D01*
X104963390Y-76837030D02*
X105534819Y-77408458D01*
X105534819Y-77408458D02*
X105534819Y-76789411D01*
X102042438Y-77789411D02*
X101994819Y-77884649D01*
X101994819Y-77884649D02*
X101994819Y-78027506D01*
X101994819Y-78027506D02*
X102042438Y-78170363D01*
X102042438Y-78170363D02*
X102137676Y-78265601D01*
X102137676Y-78265601D02*
X102232914Y-78313220D01*
X102232914Y-78313220D02*
X102423390Y-78360839D01*
X102423390Y-78360839D02*
X102566247Y-78360839D01*
X102566247Y-78360839D02*
X102756723Y-78313220D01*
X102756723Y-78313220D02*
X102851961Y-78265601D01*
X102851961Y-78265601D02*
X102947200Y-78170363D01*
X102947200Y-78170363D02*
X102994819Y-78027506D01*
X102994819Y-78027506D02*
X102994819Y-77932268D01*
X102994819Y-77932268D02*
X102947200Y-77789411D01*
X102947200Y-77789411D02*
X102899580Y-77741792D01*
X102899580Y-77741792D02*
X102566247Y-77741792D01*
X102566247Y-77741792D02*
X102566247Y-77932268D01*
X102994819Y-77313220D02*
X101994819Y-77313220D01*
X101994819Y-77313220D02*
X102994819Y-76741792D01*
X102994819Y-76741792D02*
X101994819Y-76741792D01*
X102994819Y-76265601D02*
X101994819Y-76265601D01*
X101994819Y-76265601D02*
X101994819Y-76027506D01*
X101994819Y-76027506D02*
X102042438Y-75884649D01*
X102042438Y-75884649D02*
X102137676Y-75789411D01*
X102137676Y-75789411D02*
X102232914Y-75741792D01*
X102232914Y-75741792D02*
X102423390Y-75694173D01*
X102423390Y-75694173D02*
X102566247Y-75694173D01*
X102566247Y-75694173D02*
X102756723Y-75741792D01*
X102756723Y-75741792D02*
X102851961Y-75789411D01*
X102851961Y-75789411D02*
X102947200Y-75884649D01*
X102947200Y-75884649D02*
X102994819Y-76027506D01*
X102994819Y-76027506D02*
X102994819Y-76265601D01*
X99248438Y-77789411D02*
X99200819Y-77884649D01*
X99200819Y-77884649D02*
X99200819Y-78027506D01*
X99200819Y-78027506D02*
X99248438Y-78170363D01*
X99248438Y-78170363D02*
X99343676Y-78265601D01*
X99343676Y-78265601D02*
X99438914Y-78313220D01*
X99438914Y-78313220D02*
X99629390Y-78360839D01*
X99629390Y-78360839D02*
X99772247Y-78360839D01*
X99772247Y-78360839D02*
X99962723Y-78313220D01*
X99962723Y-78313220D02*
X100057961Y-78265601D01*
X100057961Y-78265601D02*
X100153200Y-78170363D01*
X100153200Y-78170363D02*
X100200819Y-78027506D01*
X100200819Y-78027506D02*
X100200819Y-77932268D01*
X100200819Y-77932268D02*
X100153200Y-77789411D01*
X100153200Y-77789411D02*
X100105580Y-77741792D01*
X100105580Y-77741792D02*
X99772247Y-77741792D01*
X99772247Y-77741792D02*
X99772247Y-77932268D01*
X100200819Y-76789411D02*
X100200819Y-77360839D01*
X100200819Y-77075125D02*
X99200819Y-77075125D01*
X99200819Y-77075125D02*
X99343676Y-77170363D01*
X99343676Y-77170363D02*
X99438914Y-77265601D01*
X99438914Y-77265601D02*
X99486533Y-77360839D01*
D12*
X128880225Y-140359757D02*
X128737368Y-140288328D01*
X128737368Y-140288328D02*
X128523082Y-140288328D01*
X128523082Y-140288328D02*
X128308796Y-140359757D01*
X128308796Y-140359757D02*
X128165939Y-140502614D01*
X128165939Y-140502614D02*
X128094510Y-140645471D01*
X128094510Y-140645471D02*
X128023082Y-140931185D01*
X128023082Y-140931185D02*
X128023082Y-141145471D01*
X128023082Y-141145471D02*
X128094510Y-141431185D01*
X128094510Y-141431185D02*
X128165939Y-141574042D01*
X128165939Y-141574042D02*
X128308796Y-141716900D01*
X128308796Y-141716900D02*
X128523082Y-141788328D01*
X128523082Y-141788328D02*
X128665939Y-141788328D01*
X128665939Y-141788328D02*
X128880225Y-141716900D01*
X128880225Y-141716900D02*
X128951653Y-141645471D01*
X128951653Y-141645471D02*
X128951653Y-141145471D01*
X128951653Y-141145471D02*
X128665939Y-141145471D01*
X130380225Y-141788328D02*
X129523082Y-141788328D01*
X129951653Y-141788328D02*
X129951653Y-140288328D01*
X129951653Y-140288328D02*
X129808796Y-140502614D01*
X129808796Y-140502614D02*
X129665939Y-140645471D01*
X129665939Y-140645471D02*
X129523082Y-140716900D01*
X128880225Y-137819757D02*
X128737368Y-137748328D01*
X128737368Y-137748328D02*
X128523082Y-137748328D01*
X128523082Y-137748328D02*
X128308796Y-137819757D01*
X128308796Y-137819757D02*
X128165939Y-137962614D01*
X128165939Y-137962614D02*
X128094510Y-138105471D01*
X128094510Y-138105471D02*
X128023082Y-138391185D01*
X128023082Y-138391185D02*
X128023082Y-138605471D01*
X128023082Y-138605471D02*
X128094510Y-138891185D01*
X128094510Y-138891185D02*
X128165939Y-139034042D01*
X128165939Y-139034042D02*
X128308796Y-139176900D01*
X128308796Y-139176900D02*
X128523082Y-139248328D01*
X128523082Y-139248328D02*
X128665939Y-139248328D01*
X128665939Y-139248328D02*
X128880225Y-139176900D01*
X128880225Y-139176900D02*
X128951653Y-139105471D01*
X128951653Y-139105471D02*
X128951653Y-138605471D01*
X128951653Y-138605471D02*
X128665939Y-138605471D01*
X129523082Y-137891185D02*
X129594510Y-137819757D01*
X129594510Y-137819757D02*
X129737368Y-137748328D01*
X129737368Y-137748328D02*
X130094510Y-137748328D01*
X130094510Y-137748328D02*
X130237368Y-137819757D01*
X130237368Y-137819757D02*
X130308796Y-137891185D01*
X130308796Y-137891185D02*
X130380225Y-138034042D01*
X130380225Y-138034042D02*
X130380225Y-138176900D01*
X130380225Y-138176900D02*
X130308796Y-138391185D01*
X130308796Y-138391185D02*
X129451653Y-139248328D01*
X129451653Y-139248328D02*
X130380225Y-139248328D01*
X128594510Y-135922614D02*
X128808796Y-135994042D01*
X128808796Y-135994042D02*
X128880225Y-136065471D01*
X128880225Y-136065471D02*
X128951653Y-136208328D01*
X128951653Y-136208328D02*
X128951653Y-136422614D01*
X128951653Y-136422614D02*
X128880225Y-136565471D01*
X128880225Y-136565471D02*
X128808796Y-136636900D01*
X128808796Y-136636900D02*
X128665939Y-136708328D01*
X128665939Y-136708328D02*
X128094510Y-136708328D01*
X128094510Y-136708328D02*
X128094510Y-135208328D01*
X128094510Y-135208328D02*
X128594510Y-135208328D01*
X128594510Y-135208328D02*
X128737368Y-135279757D01*
X128737368Y-135279757D02*
X128808796Y-135351185D01*
X128808796Y-135351185D02*
X128880225Y-135494042D01*
X128880225Y-135494042D02*
X128880225Y-135636900D01*
X128880225Y-135636900D02*
X128808796Y-135779757D01*
X128808796Y-135779757D02*
X128737368Y-135851185D01*
X128737368Y-135851185D02*
X128594510Y-135922614D01*
X128594510Y-135922614D02*
X128094510Y-135922614D01*
X128094510Y-134168328D02*
X128094510Y-132668328D01*
X128094510Y-132668328D02*
X128451653Y-132668328D01*
X128451653Y-132668328D02*
X128665939Y-132739757D01*
X128665939Y-132739757D02*
X128808796Y-132882614D01*
X128808796Y-132882614D02*
X128880225Y-133025471D01*
X128880225Y-133025471D02*
X128951653Y-133311185D01*
X128951653Y-133311185D02*
X128951653Y-133525471D01*
X128951653Y-133525471D02*
X128880225Y-133811185D01*
X128880225Y-133811185D02*
X128808796Y-133954042D01*
X128808796Y-133954042D02*
X128665939Y-134096900D01*
X128665939Y-134096900D02*
X128451653Y-134168328D01*
X128451653Y-134168328D02*
X128094510Y-134168328D01*
X128808796Y-131628328D02*
X128094510Y-131628328D01*
X128094510Y-131628328D02*
X128094510Y-130128328D01*
X129237368Y-131199757D02*
X129951654Y-131199757D01*
X129094511Y-131628328D02*
X129594511Y-130128328D01*
X129594511Y-130128328D02*
X130094511Y-131628328D01*
X130380225Y-130128328D02*
X131237368Y-130128328D01*
X130808796Y-131628328D02*
X130808796Y-130128328D01*
X128380225Y-127588328D02*
X128665939Y-127588328D01*
X128665939Y-127588328D02*
X128808796Y-127659757D01*
X128808796Y-127659757D02*
X128951653Y-127802614D01*
X128951653Y-127802614D02*
X129023082Y-128088328D01*
X129023082Y-128088328D02*
X129023082Y-128588328D01*
X129023082Y-128588328D02*
X128951653Y-128874042D01*
X128951653Y-128874042D02*
X128808796Y-129016900D01*
X128808796Y-129016900D02*
X128665939Y-129088328D01*
X128665939Y-129088328D02*
X128380225Y-129088328D01*
X128380225Y-129088328D02*
X128237368Y-129016900D01*
X128237368Y-129016900D02*
X128094510Y-128874042D01*
X128094510Y-128874042D02*
X128023082Y-128588328D01*
X128023082Y-128588328D02*
X128023082Y-128088328D01*
X128023082Y-128088328D02*
X128094510Y-127802614D01*
X128094510Y-127802614D02*
X128237368Y-127659757D01*
X128237368Y-127659757D02*
X128380225Y-127588328D01*
X129665939Y-128302614D02*
X130165939Y-128302614D01*
X130380225Y-129088328D02*
X129665939Y-129088328D01*
X129665939Y-129088328D02*
X129665939Y-127588328D01*
X129665939Y-127588328D02*
X130380225Y-127588328D01*
X128951653Y-126405471D02*
X128880225Y-126476900D01*
X128880225Y-126476900D02*
X128665939Y-126548328D01*
X128665939Y-126548328D02*
X128523082Y-126548328D01*
X128523082Y-126548328D02*
X128308796Y-126476900D01*
X128308796Y-126476900D02*
X128165939Y-126334042D01*
X128165939Y-126334042D02*
X128094510Y-126191185D01*
X128094510Y-126191185D02*
X128023082Y-125905471D01*
X128023082Y-125905471D02*
X128023082Y-125691185D01*
X128023082Y-125691185D02*
X128094510Y-125405471D01*
X128094510Y-125405471D02*
X128165939Y-125262614D01*
X128165939Y-125262614D02*
X128308796Y-125119757D01*
X128308796Y-125119757D02*
X128523082Y-125048328D01*
X128523082Y-125048328D02*
X128665939Y-125048328D01*
X128665939Y-125048328D02*
X128880225Y-125119757D01*
X128880225Y-125119757D02*
X128951653Y-125191185D01*
X130308796Y-126548328D02*
X129594510Y-126548328D01*
X129594510Y-126548328D02*
X129594510Y-125048328D01*
X130808796Y-126548328D02*
X130808796Y-125048328D01*
X131665939Y-126548328D02*
X131023082Y-125691185D01*
X131665939Y-125048328D02*
X130808796Y-125905471D01*
X128951653Y-123865471D02*
X128880225Y-123936900D01*
X128880225Y-123936900D02*
X128665939Y-124008328D01*
X128665939Y-124008328D02*
X128523082Y-124008328D01*
X128523082Y-124008328D02*
X128308796Y-123936900D01*
X128308796Y-123936900D02*
X128165939Y-123794042D01*
X128165939Y-123794042D02*
X128094510Y-123651185D01*
X128094510Y-123651185D02*
X128023082Y-123365471D01*
X128023082Y-123365471D02*
X128023082Y-123151185D01*
X128023082Y-123151185D02*
X128094510Y-122865471D01*
X128094510Y-122865471D02*
X128165939Y-122722614D01*
X128165939Y-122722614D02*
X128308796Y-122579757D01*
X128308796Y-122579757D02*
X128523082Y-122508328D01*
X128523082Y-122508328D02*
X128665939Y-122508328D01*
X128665939Y-122508328D02*
X128880225Y-122579757D01*
X128880225Y-122579757D02*
X128951653Y-122651185D01*
X128023082Y-121039757D02*
X128737368Y-121039757D01*
X127880225Y-121468328D02*
X128380225Y-119968328D01*
X128380225Y-119968328D02*
X128880225Y-121468328D01*
X128951653Y-118928328D02*
X128451653Y-118214042D01*
X128094510Y-118928328D02*
X128094510Y-117428328D01*
X128094510Y-117428328D02*
X128665939Y-117428328D01*
X128665939Y-117428328D02*
X128808796Y-117499757D01*
X128808796Y-117499757D02*
X128880225Y-117571185D01*
X128880225Y-117571185D02*
X128951653Y-117714042D01*
X128951653Y-117714042D02*
X128951653Y-117928328D01*
X128951653Y-117928328D02*
X128880225Y-118071185D01*
X128880225Y-118071185D02*
X128808796Y-118142614D01*
X128808796Y-118142614D02*
X128665939Y-118214042D01*
X128665939Y-118214042D02*
X128094510Y-118214042D01*
X130380225Y-118928328D02*
X129523082Y-118928328D01*
X129951653Y-118928328D02*
X129951653Y-117428328D01*
X129951653Y-117428328D02*
X129808796Y-117642614D01*
X129808796Y-117642614D02*
X129665939Y-117785471D01*
X129665939Y-117785471D02*
X129523082Y-117856900D01*
X128594510Y-115602614D02*
X128808796Y-115674042D01*
X128808796Y-115674042D02*
X128880225Y-115745471D01*
X128880225Y-115745471D02*
X128951653Y-115888328D01*
X128951653Y-115888328D02*
X128951653Y-116102614D01*
X128951653Y-116102614D02*
X128880225Y-116245471D01*
X128880225Y-116245471D02*
X128808796Y-116316900D01*
X128808796Y-116316900D02*
X128665939Y-116388328D01*
X128665939Y-116388328D02*
X128094510Y-116388328D01*
X128094510Y-116388328D02*
X128094510Y-114888328D01*
X128094510Y-114888328D02*
X128594510Y-114888328D01*
X128594510Y-114888328D02*
X128737368Y-114959757D01*
X128737368Y-114959757D02*
X128808796Y-115031185D01*
X128808796Y-115031185D02*
X128880225Y-115174042D01*
X128880225Y-115174042D02*
X128880225Y-115316900D01*
X128880225Y-115316900D02*
X128808796Y-115459757D01*
X128808796Y-115459757D02*
X128737368Y-115531185D01*
X128737368Y-115531185D02*
X128594510Y-115602614D01*
X128594510Y-115602614D02*
X128094510Y-115602614D01*
X130380225Y-116388328D02*
X129523082Y-116388328D01*
X129951653Y-116388328D02*
X129951653Y-114888328D01*
X129951653Y-114888328D02*
X129808796Y-115102614D01*
X129808796Y-115102614D02*
X129665939Y-115245471D01*
X129665939Y-115245471D02*
X129523082Y-115316900D01*
X128951653Y-113848328D02*
X128451653Y-113134042D01*
X128094510Y-113848328D02*
X128094510Y-112348328D01*
X128094510Y-112348328D02*
X128665939Y-112348328D01*
X128665939Y-112348328D02*
X128808796Y-112419757D01*
X128808796Y-112419757D02*
X128880225Y-112491185D01*
X128880225Y-112491185D02*
X128951653Y-112634042D01*
X128951653Y-112634042D02*
X128951653Y-112848328D01*
X128951653Y-112848328D02*
X128880225Y-112991185D01*
X128880225Y-112991185D02*
X128808796Y-113062614D01*
X128808796Y-113062614D02*
X128665939Y-113134042D01*
X128665939Y-113134042D02*
X128094510Y-113134042D01*
X129523082Y-112491185D02*
X129594510Y-112419757D01*
X129594510Y-112419757D02*
X129737368Y-112348328D01*
X129737368Y-112348328D02*
X130094510Y-112348328D01*
X130094510Y-112348328D02*
X130237368Y-112419757D01*
X130237368Y-112419757D02*
X130308796Y-112491185D01*
X130308796Y-112491185D02*
X130380225Y-112634042D01*
X130380225Y-112634042D02*
X130380225Y-112776900D01*
X130380225Y-112776900D02*
X130308796Y-112991185D01*
X130308796Y-112991185D02*
X129451653Y-113848328D01*
X129451653Y-113848328D02*
X130380225Y-113848328D01*
X128594510Y-110522614D02*
X128808796Y-110594042D01*
X128808796Y-110594042D02*
X128880225Y-110665471D01*
X128880225Y-110665471D02*
X128951653Y-110808328D01*
X128951653Y-110808328D02*
X128951653Y-111022614D01*
X128951653Y-111022614D02*
X128880225Y-111165471D01*
X128880225Y-111165471D02*
X128808796Y-111236900D01*
X128808796Y-111236900D02*
X128665939Y-111308328D01*
X128665939Y-111308328D02*
X128094510Y-111308328D01*
X128094510Y-111308328D02*
X128094510Y-109808328D01*
X128094510Y-109808328D02*
X128594510Y-109808328D01*
X128594510Y-109808328D02*
X128737368Y-109879757D01*
X128737368Y-109879757D02*
X128808796Y-109951185D01*
X128808796Y-109951185D02*
X128880225Y-110094042D01*
X128880225Y-110094042D02*
X128880225Y-110236900D01*
X128880225Y-110236900D02*
X128808796Y-110379757D01*
X128808796Y-110379757D02*
X128737368Y-110451185D01*
X128737368Y-110451185D02*
X128594510Y-110522614D01*
X128594510Y-110522614D02*
X128094510Y-110522614D01*
X129523082Y-109951185D02*
X129594510Y-109879757D01*
X129594510Y-109879757D02*
X129737368Y-109808328D01*
X129737368Y-109808328D02*
X130094510Y-109808328D01*
X130094510Y-109808328D02*
X130237368Y-109879757D01*
X130237368Y-109879757D02*
X130308796Y-109951185D01*
X130308796Y-109951185D02*
X130380225Y-110094042D01*
X130380225Y-110094042D02*
X130380225Y-110236900D01*
X130380225Y-110236900D02*
X130308796Y-110451185D01*
X130308796Y-110451185D02*
X129451653Y-111308328D01*
X129451653Y-111308328D02*
X130380225Y-111308328D01*
X119069813Y-66998627D02*
X119069813Y-68498627D01*
X119069813Y-68498627D02*
X118712670Y-68498627D01*
X118712670Y-68498627D02*
X118498384Y-68427198D01*
X118498384Y-68427198D02*
X118355527Y-68284341D01*
X118355527Y-68284341D02*
X118284098Y-68141484D01*
X118284098Y-68141484D02*
X118212670Y-67855770D01*
X118212670Y-67855770D02*
X118212670Y-67641484D01*
X118212670Y-67641484D02*
X118284098Y-67355770D01*
X118284098Y-67355770D02*
X118355527Y-67212913D01*
X118355527Y-67212913D02*
X118498384Y-67070056D01*
X118498384Y-67070056D02*
X118712670Y-66998627D01*
X118712670Y-66998627D02*
X119069813Y-66998627D01*
X135464285Y-100685471D02*
X135392857Y-100756900D01*
X135392857Y-100756900D02*
X135178571Y-100828328D01*
X135178571Y-100828328D02*
X135035714Y-100828328D01*
X135035714Y-100828328D02*
X134821428Y-100756900D01*
X134821428Y-100756900D02*
X134678571Y-100614042D01*
X134678571Y-100614042D02*
X134607142Y-100471185D01*
X134607142Y-100471185D02*
X134535714Y-100185471D01*
X134535714Y-100185471D02*
X134535714Y-99971185D01*
X134535714Y-99971185D02*
X134607142Y-99685471D01*
X134607142Y-99685471D02*
X134678571Y-99542614D01*
X134678571Y-99542614D02*
X134821428Y-99399757D01*
X134821428Y-99399757D02*
X135035714Y-99328328D01*
X135035714Y-99328328D02*
X135178571Y-99328328D01*
X135178571Y-99328328D02*
X135392857Y-99399757D01*
X135392857Y-99399757D02*
X135464285Y-99471185D01*
X108569813Y-67784341D02*
X108355527Y-67712913D01*
X108355527Y-67712913D02*
X108284098Y-67641484D01*
X108284098Y-67641484D02*
X108212670Y-67498627D01*
X108212670Y-67498627D02*
X108212670Y-67284341D01*
X108212670Y-67284341D02*
X108284098Y-67141484D01*
X108284098Y-67141484D02*
X108355527Y-67070056D01*
X108355527Y-67070056D02*
X108498384Y-66998627D01*
X108498384Y-66998627D02*
X109069813Y-66998627D01*
X109069813Y-66998627D02*
X109069813Y-68498627D01*
X109069813Y-68498627D02*
X108569813Y-68498627D01*
X108569813Y-68498627D02*
X108426956Y-68427198D01*
X108426956Y-68427198D02*
X108355527Y-68355770D01*
X108355527Y-68355770D02*
X108284098Y-68212913D01*
X108284098Y-68212913D02*
X108284098Y-68070056D01*
X108284098Y-68070056D02*
X108355527Y-67927198D01*
X108355527Y-67927198D02*
X108426956Y-67855770D01*
X108426956Y-67855770D02*
X108569813Y-67784341D01*
X108569813Y-67784341D02*
X109069813Y-67784341D01*
X124642857Y-100249757D02*
X125357143Y-100249757D01*
X124500000Y-100678328D02*
X125000000Y-99178328D01*
X125000000Y-99178328D02*
X125500000Y-100678328D01*
X137328328Y-79821428D02*
X137328328Y-79535714D01*
X137328328Y-79535714D02*
X137399757Y-79392857D01*
X137399757Y-79392857D02*
X137542614Y-79250000D01*
X137542614Y-79250000D02*
X137828328Y-79178571D01*
X137828328Y-79178571D02*
X138328328Y-79178571D01*
X138328328Y-79178571D02*
X138614042Y-79250000D01*
X138614042Y-79250000D02*
X138756900Y-79392857D01*
X138756900Y-79392857D02*
X138828328Y-79535714D01*
X138828328Y-79535714D02*
X138828328Y-79821428D01*
X138828328Y-79821428D02*
X138756900Y-79964286D01*
X138756900Y-79964286D02*
X138614042Y-80107143D01*
X138614042Y-80107143D02*
X138328328Y-80178571D01*
X138328328Y-80178571D02*
X137828328Y-80178571D01*
X137828328Y-80178571D02*
X137542614Y-80107143D01*
X137542614Y-80107143D02*
X137399757Y-79964286D01*
X137399757Y-79964286D02*
X137328328Y-79821428D01*
X138042614Y-78535714D02*
X138042614Y-78035714D01*
X138828328Y-77821428D02*
X138828328Y-78535714D01*
X138828328Y-78535714D02*
X137328328Y-78535714D01*
X137328328Y-78535714D02*
X137328328Y-77821428D01*
X129426955Y-66988627D02*
X130141241Y-66988627D01*
X130141241Y-66988627D02*
X130141241Y-68488627D01*
X128998383Y-67417198D02*
X128284098Y-67417198D01*
X129141240Y-66988627D02*
X128641240Y-68488627D01*
X128641240Y-68488627D02*
X128141240Y-66988627D01*
X127855526Y-68488627D02*
X126998384Y-68488627D01*
X127426955Y-66988627D02*
X127426955Y-68488627D01*
X138685471Y-89892857D02*
X138756900Y-89964285D01*
X138756900Y-89964285D02*
X138828328Y-90178571D01*
X138828328Y-90178571D02*
X138828328Y-90321428D01*
X138828328Y-90321428D02*
X138756900Y-90535714D01*
X138756900Y-90535714D02*
X138614042Y-90678571D01*
X138614042Y-90678571D02*
X138471185Y-90750000D01*
X138471185Y-90750000D02*
X138185471Y-90821428D01*
X138185471Y-90821428D02*
X137971185Y-90821428D01*
X137971185Y-90821428D02*
X137685471Y-90750000D01*
X137685471Y-90750000D02*
X137542614Y-90678571D01*
X137542614Y-90678571D02*
X137399757Y-90535714D01*
X137399757Y-90535714D02*
X137328328Y-90321428D01*
X137328328Y-90321428D02*
X137328328Y-90178571D01*
X137328328Y-90178571D02*
X137399757Y-89964285D01*
X137399757Y-89964285D02*
X137471185Y-89892857D01*
X138828328Y-88535714D02*
X138828328Y-89250000D01*
X138828328Y-89250000D02*
X137328328Y-89250000D01*
X138828328Y-88035714D02*
X137328328Y-88035714D01*
X138828328Y-87178571D02*
X137971185Y-87821428D01*
X137328328Y-87178571D02*
X138185471Y-88035714D01*
X98998383Y-68277198D02*
X99141241Y-68348627D01*
X99141241Y-68348627D02*
X99355526Y-68348627D01*
X99355526Y-68348627D02*
X99569812Y-68277198D01*
X99569812Y-68277198D02*
X99712669Y-68134341D01*
X99712669Y-68134341D02*
X99784098Y-67991484D01*
X99784098Y-67991484D02*
X99855526Y-67705770D01*
X99855526Y-67705770D02*
X99855526Y-67491484D01*
X99855526Y-67491484D02*
X99784098Y-67205770D01*
X99784098Y-67205770D02*
X99712669Y-67062913D01*
X99712669Y-67062913D02*
X99569812Y-66920056D01*
X99569812Y-66920056D02*
X99355526Y-66848627D01*
X99355526Y-66848627D02*
X99212669Y-66848627D01*
X99212669Y-66848627D02*
X98998383Y-66920056D01*
X98998383Y-66920056D02*
X98926955Y-66991484D01*
X98926955Y-66991484D02*
X98926955Y-67491484D01*
X98926955Y-67491484D02*
X99212669Y-67491484D01*
X98355526Y-68205770D02*
X98284098Y-68277198D01*
X98284098Y-68277198D02*
X98141241Y-68348627D01*
X98141241Y-68348627D02*
X97784098Y-68348627D01*
X97784098Y-68348627D02*
X97641241Y-68277198D01*
X97641241Y-68277198D02*
X97569812Y-68205770D01*
X97569812Y-68205770D02*
X97498383Y-68062913D01*
X97498383Y-68062913D02*
X97498383Y-67920056D01*
X97498383Y-67920056D02*
X97569812Y-67705770D01*
X97569812Y-67705770D02*
X98426955Y-66848627D01*
X98426955Y-66848627D02*
X97498383Y-66848627D01*
X114392857Y-100042614D02*
X114607143Y-100114042D01*
X114607143Y-100114042D02*
X114678572Y-100185471D01*
X114678572Y-100185471D02*
X114750000Y-100328328D01*
X114750000Y-100328328D02*
X114750000Y-100542614D01*
X114750000Y-100542614D02*
X114678572Y-100685471D01*
X114678572Y-100685471D02*
X114607143Y-100756900D01*
X114607143Y-100756900D02*
X114464286Y-100828328D01*
X114464286Y-100828328D02*
X113892857Y-100828328D01*
X113892857Y-100828328D02*
X113892857Y-99328328D01*
X113892857Y-99328328D02*
X114392857Y-99328328D01*
X114392857Y-99328328D02*
X114535715Y-99399757D01*
X114535715Y-99399757D02*
X114607143Y-99471185D01*
X114607143Y-99471185D02*
X114678572Y-99614042D01*
X114678572Y-99614042D02*
X114678572Y-99756900D01*
X114678572Y-99756900D02*
X114607143Y-99899757D01*
X114607143Y-99899757D02*
X114535715Y-99971185D01*
X114535715Y-99971185D02*
X114392857Y-100042614D01*
X114392857Y-100042614D02*
X113892857Y-100042614D01*
X115321429Y-99471185D02*
X115392857Y-99399757D01*
X115392857Y-99399757D02*
X115535715Y-99328328D01*
X115535715Y-99328328D02*
X115892857Y-99328328D01*
X115892857Y-99328328D02*
X116035715Y-99399757D01*
X116035715Y-99399757D02*
X116107143Y-99471185D01*
X116107143Y-99471185D02*
X116178572Y-99614042D01*
X116178572Y-99614042D02*
X116178572Y-99756900D01*
X116178572Y-99756900D02*
X116107143Y-99971185D01*
X116107143Y-99971185D02*
X115250000Y-100828328D01*
X115250000Y-100828328D02*
X116178572Y-100828328D01*
X104750000Y-100828328D02*
X104250000Y-100114042D01*
X103892857Y-100828328D02*
X103892857Y-99328328D01*
X103892857Y-99328328D02*
X104464286Y-99328328D01*
X104464286Y-99328328D02*
X104607143Y-99399757D01*
X104607143Y-99399757D02*
X104678572Y-99471185D01*
X104678572Y-99471185D02*
X104750000Y-99614042D01*
X104750000Y-99614042D02*
X104750000Y-99828328D01*
X104750000Y-99828328D02*
X104678572Y-99971185D01*
X104678572Y-99971185D02*
X104607143Y-100042614D01*
X104607143Y-100042614D02*
X104464286Y-100114042D01*
X104464286Y-100114042D02*
X103892857Y-100114042D01*
X105321429Y-99471185D02*
X105392857Y-99399757D01*
X105392857Y-99399757D02*
X105535715Y-99328328D01*
X105535715Y-99328328D02*
X105892857Y-99328328D01*
X105892857Y-99328328D02*
X106035715Y-99399757D01*
X106035715Y-99399757D02*
X106107143Y-99471185D01*
X106107143Y-99471185D02*
X106178572Y-99614042D01*
X106178572Y-99614042D02*
X106178572Y-99756900D01*
X106178572Y-99756900D02*
X106107143Y-99971185D01*
X106107143Y-99971185D02*
X105250000Y-100828328D01*
X105250000Y-100828328D02*
X106178572Y-100828328D01*
X88998383Y-68277198D02*
X89141241Y-68348627D01*
X89141241Y-68348627D02*
X89355526Y-68348627D01*
X89355526Y-68348627D02*
X89569812Y-68277198D01*
X89569812Y-68277198D02*
X89712669Y-68134341D01*
X89712669Y-68134341D02*
X89784098Y-67991484D01*
X89784098Y-67991484D02*
X89855526Y-67705770D01*
X89855526Y-67705770D02*
X89855526Y-67491484D01*
X89855526Y-67491484D02*
X89784098Y-67205770D01*
X89784098Y-67205770D02*
X89712669Y-67062913D01*
X89712669Y-67062913D02*
X89569812Y-66920056D01*
X89569812Y-66920056D02*
X89355526Y-66848627D01*
X89355526Y-66848627D02*
X89212669Y-66848627D01*
X89212669Y-66848627D02*
X88998383Y-66920056D01*
X88998383Y-66920056D02*
X88926955Y-66991484D01*
X88926955Y-66991484D02*
X88926955Y-67491484D01*
X88926955Y-67491484D02*
X89212669Y-67491484D01*
X87498383Y-66848627D02*
X88355526Y-66848627D01*
X87926955Y-66848627D02*
X87926955Y-68348627D01*
X87926955Y-68348627D02*
X88069812Y-68134341D01*
X88069812Y-68134341D02*
X88212669Y-67991484D01*
X88212669Y-67991484D02*
X88355526Y-67920056D01*
X94392857Y-100042614D02*
X94607143Y-100114042D01*
X94607143Y-100114042D02*
X94678572Y-100185471D01*
X94678572Y-100185471D02*
X94750000Y-100328328D01*
X94750000Y-100328328D02*
X94750000Y-100542614D01*
X94750000Y-100542614D02*
X94678572Y-100685471D01*
X94678572Y-100685471D02*
X94607143Y-100756900D01*
X94607143Y-100756900D02*
X94464286Y-100828328D01*
X94464286Y-100828328D02*
X93892857Y-100828328D01*
X93892857Y-100828328D02*
X93892857Y-99328328D01*
X93892857Y-99328328D02*
X94392857Y-99328328D01*
X94392857Y-99328328D02*
X94535715Y-99399757D01*
X94535715Y-99399757D02*
X94607143Y-99471185D01*
X94607143Y-99471185D02*
X94678572Y-99614042D01*
X94678572Y-99614042D02*
X94678572Y-99756900D01*
X94678572Y-99756900D02*
X94607143Y-99899757D01*
X94607143Y-99899757D02*
X94535715Y-99971185D01*
X94535715Y-99971185D02*
X94392857Y-100042614D01*
X94392857Y-100042614D02*
X93892857Y-100042614D01*
X96178572Y-100828328D02*
X95321429Y-100828328D01*
X95750000Y-100828328D02*
X95750000Y-99328328D01*
X95750000Y-99328328D02*
X95607143Y-99542614D01*
X95607143Y-99542614D02*
X95464286Y-99685471D01*
X95464286Y-99685471D02*
X95321429Y-99756900D01*
X84750000Y-100828328D02*
X84250000Y-100114042D01*
X83892857Y-100828328D02*
X83892857Y-99328328D01*
X83892857Y-99328328D02*
X84464286Y-99328328D01*
X84464286Y-99328328D02*
X84607143Y-99399757D01*
X84607143Y-99399757D02*
X84678572Y-99471185D01*
X84678572Y-99471185D02*
X84750000Y-99614042D01*
X84750000Y-99614042D02*
X84750000Y-99828328D01*
X84750000Y-99828328D02*
X84678572Y-99971185D01*
X84678572Y-99971185D02*
X84607143Y-100042614D01*
X84607143Y-100042614D02*
X84464286Y-100114042D01*
X84464286Y-100114042D02*
X83892857Y-100114042D01*
X86178572Y-100828328D02*
X85321429Y-100828328D01*
X85750000Y-100828328D02*
X85750000Y-99328328D01*
X85750000Y-99328328D02*
X85607143Y-99542614D01*
X85607143Y-99542614D02*
X85464286Y-99685471D01*
X85464286Y-99685471D02*
X85321429Y-99756900D01*
D11*
X114131775Y-66319813D02*
X113655584Y-66653146D01*
X114131775Y-66891241D02*
X113131775Y-66891241D01*
X113131775Y-66891241D02*
X113131775Y-66510289D01*
X113131775Y-66510289D02*
X113179394Y-66415051D01*
X113179394Y-66415051D02*
X113227013Y-66367432D01*
X113227013Y-66367432D02*
X113322251Y-66319813D01*
X113322251Y-66319813D02*
X113465108Y-66319813D01*
X113465108Y-66319813D02*
X113560346Y-66367432D01*
X113560346Y-66367432D02*
X113607965Y-66415051D01*
X113607965Y-66415051D02*
X113655584Y-66510289D01*
X113655584Y-66510289D02*
X113655584Y-66891241D01*
X113227013Y-65938860D02*
X113179394Y-65891241D01*
X113179394Y-65891241D02*
X113131775Y-65796003D01*
X113131775Y-65796003D02*
X113131775Y-65557908D01*
X113131775Y-65557908D02*
X113179394Y-65462670D01*
X113179394Y-65462670D02*
X113227013Y-65415051D01*
X113227013Y-65415051D02*
X113322251Y-65367432D01*
X113322251Y-65367432D02*
X113417489Y-65367432D01*
X113417489Y-65367432D02*
X113560346Y-65415051D01*
X113560346Y-65415051D02*
X114131775Y-65986479D01*
X114131775Y-65986479D02*
X114131775Y-65367432D01*
X113131775Y-64510289D02*
X113131775Y-64700765D01*
X113131775Y-64700765D02*
X113179394Y-64796003D01*
X113179394Y-64796003D02*
X113227013Y-64843622D01*
X113227013Y-64843622D02*
X113369870Y-64938860D01*
X113369870Y-64938860D02*
X113560346Y-64986479D01*
X113560346Y-64986479D02*
X113941298Y-64986479D01*
X113941298Y-64986479D02*
X114036536Y-64938860D01*
X114036536Y-64938860D02*
X114084156Y-64891241D01*
X114084156Y-64891241D02*
X114131775Y-64796003D01*
X114131775Y-64796003D02*
X114131775Y-64605527D01*
X114131775Y-64605527D02*
X114084156Y-64510289D01*
X114084156Y-64510289D02*
X114036536Y-64462670D01*
X114036536Y-64462670D02*
X113941298Y-64415051D01*
X113941298Y-64415051D02*
X113703203Y-64415051D01*
X113703203Y-64415051D02*
X113607965Y-64462670D01*
X113607965Y-64462670D02*
X113560346Y-64510289D01*
X113560346Y-64510289D02*
X113512727Y-64605527D01*
X113512727Y-64605527D02*
X113512727Y-64796003D01*
X113512727Y-64796003D02*
X113560346Y-64891241D01*
X113560346Y-64891241D02*
X113607965Y-64938860D01*
X113607965Y-64938860D02*
X113703203Y-64986479D01*
X104131775Y-66319813D02*
X103655584Y-66653146D01*
X104131775Y-66891241D02*
X103131775Y-66891241D01*
X103131775Y-66891241D02*
X103131775Y-66510289D01*
X103131775Y-66510289D02*
X103179394Y-66415051D01*
X103179394Y-66415051D02*
X103227013Y-66367432D01*
X103227013Y-66367432D02*
X103322251Y-66319813D01*
X103322251Y-66319813D02*
X103465108Y-66319813D01*
X103465108Y-66319813D02*
X103560346Y-66367432D01*
X103560346Y-66367432D02*
X103607965Y-66415051D01*
X103607965Y-66415051D02*
X103655584Y-66510289D01*
X103655584Y-66510289D02*
X103655584Y-66891241D01*
X103227013Y-65938860D02*
X103179394Y-65891241D01*
X103179394Y-65891241D02*
X103131775Y-65796003D01*
X103131775Y-65796003D02*
X103131775Y-65557908D01*
X103131775Y-65557908D02*
X103179394Y-65462670D01*
X103179394Y-65462670D02*
X103227013Y-65415051D01*
X103227013Y-65415051D02*
X103322251Y-65367432D01*
X103322251Y-65367432D02*
X103417489Y-65367432D01*
X103417489Y-65367432D02*
X103560346Y-65415051D01*
X103560346Y-65415051D02*
X104131775Y-65986479D01*
X104131775Y-65986479D02*
X104131775Y-65367432D01*
X103465108Y-64510289D02*
X104131775Y-64510289D01*
X103084156Y-64748384D02*
X103798441Y-64986479D01*
X103798441Y-64986479D02*
X103798441Y-64367432D01*
X130454819Y-102642857D02*
X129978628Y-102976190D01*
X130454819Y-103214285D02*
X129454819Y-103214285D01*
X129454819Y-103214285D02*
X129454819Y-102833333D01*
X129454819Y-102833333D02*
X129502438Y-102738095D01*
X129502438Y-102738095D02*
X129550057Y-102690476D01*
X129550057Y-102690476D02*
X129645295Y-102642857D01*
X129645295Y-102642857D02*
X129788152Y-102642857D01*
X129788152Y-102642857D02*
X129883390Y-102690476D01*
X129883390Y-102690476D02*
X129931009Y-102738095D01*
X129931009Y-102738095D02*
X129978628Y-102833333D01*
X129978628Y-102833333D02*
X129978628Y-103214285D01*
X129550057Y-102261904D02*
X129502438Y-102214285D01*
X129502438Y-102214285D02*
X129454819Y-102119047D01*
X129454819Y-102119047D02*
X129454819Y-101880952D01*
X129454819Y-101880952D02*
X129502438Y-101785714D01*
X129502438Y-101785714D02*
X129550057Y-101738095D01*
X129550057Y-101738095D02*
X129645295Y-101690476D01*
X129645295Y-101690476D02*
X129740533Y-101690476D01*
X129740533Y-101690476D02*
X129883390Y-101738095D01*
X129883390Y-101738095D02*
X130454819Y-102309523D01*
X130454819Y-102309523D02*
X130454819Y-101690476D01*
X129550057Y-101309523D02*
X129502438Y-101261904D01*
X129502438Y-101261904D02*
X129454819Y-101166666D01*
X129454819Y-101166666D02*
X129454819Y-100928571D01*
X129454819Y-100928571D02*
X129502438Y-100833333D01*
X129502438Y-100833333D02*
X129550057Y-100785714D01*
X129550057Y-100785714D02*
X129645295Y-100738095D01*
X129645295Y-100738095D02*
X129740533Y-100738095D01*
X129740533Y-100738095D02*
X129883390Y-100785714D01*
X129883390Y-100785714D02*
X130454819Y-101357142D01*
X130454819Y-101357142D02*
X130454819Y-100738095D01*
X140454819Y-102792857D02*
X139978628Y-103126190D01*
X140454819Y-103364285D02*
X139454819Y-103364285D01*
X139454819Y-103364285D02*
X139454819Y-102983333D01*
X139454819Y-102983333D02*
X139502438Y-102888095D01*
X139502438Y-102888095D02*
X139550057Y-102840476D01*
X139550057Y-102840476D02*
X139645295Y-102792857D01*
X139645295Y-102792857D02*
X139788152Y-102792857D01*
X139788152Y-102792857D02*
X139883390Y-102840476D01*
X139883390Y-102840476D02*
X139931009Y-102888095D01*
X139931009Y-102888095D02*
X139978628Y-102983333D01*
X139978628Y-102983333D02*
X139978628Y-103364285D01*
X139550057Y-102411904D02*
X139502438Y-102364285D01*
X139502438Y-102364285D02*
X139454819Y-102269047D01*
X139454819Y-102269047D02*
X139454819Y-102030952D01*
X139454819Y-102030952D02*
X139502438Y-101935714D01*
X139502438Y-101935714D02*
X139550057Y-101888095D01*
X139550057Y-101888095D02*
X139645295Y-101840476D01*
X139645295Y-101840476D02*
X139740533Y-101840476D01*
X139740533Y-101840476D02*
X139883390Y-101888095D01*
X139883390Y-101888095D02*
X140454819Y-102459523D01*
X140454819Y-102459523D02*
X140454819Y-101840476D01*
X139454819Y-101221428D02*
X139454819Y-101126190D01*
X139454819Y-101126190D02*
X139502438Y-101030952D01*
X139502438Y-101030952D02*
X139550057Y-100983333D01*
X139550057Y-100983333D02*
X139645295Y-100935714D01*
X139645295Y-100935714D02*
X139835771Y-100888095D01*
X139835771Y-100888095D02*
X140073866Y-100888095D01*
X140073866Y-100888095D02*
X140264342Y-100935714D01*
X140264342Y-100935714D02*
X140359580Y-100983333D01*
X140359580Y-100983333D02*
X140407200Y-101030952D01*
X140407200Y-101030952D02*
X140454819Y-101126190D01*
X140454819Y-101126190D02*
X140454819Y-101221428D01*
X140454819Y-101221428D02*
X140407200Y-101316666D01*
X140407200Y-101316666D02*
X140359580Y-101364285D01*
X140359580Y-101364285D02*
X140264342Y-101411904D01*
X140264342Y-101411904D02*
X140073866Y-101459523D01*
X140073866Y-101459523D02*
X139835771Y-101459523D01*
X139835771Y-101459523D02*
X139645295Y-101411904D01*
X139645295Y-101411904D02*
X139550057Y-101364285D01*
X139550057Y-101364285D02*
X139502438Y-101316666D01*
X139502438Y-101316666D02*
X139454819Y-101221428D01*
X124131775Y-66319813D02*
X123655584Y-66653146D01*
X124131775Y-66891241D02*
X123131775Y-66891241D01*
X123131775Y-66891241D02*
X123131775Y-66510289D01*
X123131775Y-66510289D02*
X123179394Y-66415051D01*
X123179394Y-66415051D02*
X123227013Y-66367432D01*
X123227013Y-66367432D02*
X123322251Y-66319813D01*
X123322251Y-66319813D02*
X123465108Y-66319813D01*
X123465108Y-66319813D02*
X123560346Y-66367432D01*
X123560346Y-66367432D02*
X123607965Y-66415051D01*
X123607965Y-66415051D02*
X123655584Y-66510289D01*
X123655584Y-66510289D02*
X123655584Y-66891241D01*
X124131775Y-65367432D02*
X124131775Y-65938860D01*
X124131775Y-65653146D02*
X123131775Y-65653146D01*
X123131775Y-65653146D02*
X123274632Y-65748384D01*
X123274632Y-65748384D02*
X123369870Y-65843622D01*
X123369870Y-65843622D02*
X123417489Y-65938860D01*
X123560346Y-64796003D02*
X123512727Y-64891241D01*
X123512727Y-64891241D02*
X123465108Y-64938860D01*
X123465108Y-64938860D02*
X123369870Y-64986479D01*
X123369870Y-64986479D02*
X123322251Y-64986479D01*
X123322251Y-64986479D02*
X123227013Y-64938860D01*
X123227013Y-64938860D02*
X123179394Y-64891241D01*
X123179394Y-64891241D02*
X123131775Y-64796003D01*
X123131775Y-64796003D02*
X123131775Y-64605527D01*
X123131775Y-64605527D02*
X123179394Y-64510289D01*
X123179394Y-64510289D02*
X123227013Y-64462670D01*
X123227013Y-64462670D02*
X123322251Y-64415051D01*
X123322251Y-64415051D02*
X123369870Y-64415051D01*
X123369870Y-64415051D02*
X123465108Y-64462670D01*
X123465108Y-64462670D02*
X123512727Y-64510289D01*
X123512727Y-64510289D02*
X123560346Y-64605527D01*
X123560346Y-64605527D02*
X123560346Y-64796003D01*
X123560346Y-64796003D02*
X123607965Y-64891241D01*
X123607965Y-64891241D02*
X123655584Y-64938860D01*
X123655584Y-64938860D02*
X123750822Y-64986479D01*
X123750822Y-64986479D02*
X123941298Y-64986479D01*
X123941298Y-64986479D02*
X124036536Y-64938860D01*
X124036536Y-64938860D02*
X124084156Y-64891241D01*
X124084156Y-64891241D02*
X124131775Y-64796003D01*
X124131775Y-64796003D02*
X124131775Y-64605527D01*
X124131775Y-64605527D02*
X124084156Y-64510289D01*
X124084156Y-64510289D02*
X124036536Y-64462670D01*
X124036536Y-64462670D02*
X123941298Y-64415051D01*
X123941298Y-64415051D02*
X123750822Y-64415051D01*
X123750822Y-64415051D02*
X123655584Y-64462670D01*
X123655584Y-64462670D02*
X123607965Y-64510289D01*
X123607965Y-64510289D02*
X123560346Y-64605527D01*
X139507142Y-84454819D02*
X139173809Y-83978628D01*
X138935714Y-84454819D02*
X138935714Y-83454819D01*
X138935714Y-83454819D02*
X139316666Y-83454819D01*
X139316666Y-83454819D02*
X139411904Y-83502438D01*
X139411904Y-83502438D02*
X139459523Y-83550057D01*
X139459523Y-83550057D02*
X139507142Y-83645295D01*
X139507142Y-83645295D02*
X139507142Y-83788152D01*
X139507142Y-83788152D02*
X139459523Y-83883390D01*
X139459523Y-83883390D02*
X139411904Y-83931009D01*
X139411904Y-83931009D02*
X139316666Y-83978628D01*
X139316666Y-83978628D02*
X138935714Y-83978628D01*
X140459523Y-84454819D02*
X139888095Y-84454819D01*
X140173809Y-84454819D02*
X140173809Y-83454819D01*
X140173809Y-83454819D02*
X140078571Y-83597676D01*
X140078571Y-83597676D02*
X139983333Y-83692914D01*
X139983333Y-83692914D02*
X139888095Y-83740533D01*
X141316666Y-83454819D02*
X141126190Y-83454819D01*
X141126190Y-83454819D02*
X141030952Y-83502438D01*
X141030952Y-83502438D02*
X140983333Y-83550057D01*
X140983333Y-83550057D02*
X140888095Y-83692914D01*
X140888095Y-83692914D02*
X140840476Y-83883390D01*
X140840476Y-83883390D02*
X140840476Y-84264342D01*
X140840476Y-84264342D02*
X140888095Y-84359580D01*
X140888095Y-84359580D02*
X140935714Y-84407200D01*
X140935714Y-84407200D02*
X141030952Y-84454819D01*
X141030952Y-84454819D02*
X141221428Y-84454819D01*
X141221428Y-84454819D02*
X141316666Y-84407200D01*
X141316666Y-84407200D02*
X141364285Y-84359580D01*
X141364285Y-84359580D02*
X141411904Y-84264342D01*
X141411904Y-84264342D02*
X141411904Y-84026247D01*
X141411904Y-84026247D02*
X141364285Y-83931009D01*
X141364285Y-83931009D02*
X141316666Y-83883390D01*
X141316666Y-83883390D02*
X141221428Y-83835771D01*
X141221428Y-83835771D02*
X141030952Y-83835771D01*
X141030952Y-83835771D02*
X140935714Y-83883390D01*
X140935714Y-83883390D02*
X140888095Y-83931009D01*
X140888095Y-83931009D02*
X140840476Y-84026247D01*
X139507142Y-74454819D02*
X139173809Y-73978628D01*
X138935714Y-74454819D02*
X138935714Y-73454819D01*
X138935714Y-73454819D02*
X139316666Y-73454819D01*
X139316666Y-73454819D02*
X139411904Y-73502438D01*
X139411904Y-73502438D02*
X139459523Y-73550057D01*
X139459523Y-73550057D02*
X139507142Y-73645295D01*
X139507142Y-73645295D02*
X139507142Y-73788152D01*
X139507142Y-73788152D02*
X139459523Y-73883390D01*
X139459523Y-73883390D02*
X139411904Y-73931009D01*
X139411904Y-73931009D02*
X139316666Y-73978628D01*
X139316666Y-73978628D02*
X138935714Y-73978628D01*
X140459523Y-74454819D02*
X139888095Y-74454819D01*
X140173809Y-74454819D02*
X140173809Y-73454819D01*
X140173809Y-73454819D02*
X140078571Y-73597676D01*
X140078571Y-73597676D02*
X139983333Y-73692914D01*
X139983333Y-73692914D02*
X139888095Y-73740533D01*
X141316666Y-73788152D02*
X141316666Y-74454819D01*
X141078571Y-73407200D02*
X140840476Y-74121485D01*
X140840476Y-74121485D02*
X141459523Y-74121485D01*
X94131775Y-66319813D02*
X93655584Y-66653146D01*
X94131775Y-66891241D02*
X93131775Y-66891241D01*
X93131775Y-66891241D02*
X93131775Y-66510289D01*
X93131775Y-66510289D02*
X93179394Y-66415051D01*
X93179394Y-66415051D02*
X93227013Y-66367432D01*
X93227013Y-66367432D02*
X93322251Y-66319813D01*
X93322251Y-66319813D02*
X93465108Y-66319813D01*
X93465108Y-66319813D02*
X93560346Y-66367432D01*
X93560346Y-66367432D02*
X93607965Y-66415051D01*
X93607965Y-66415051D02*
X93655584Y-66510289D01*
X93655584Y-66510289D02*
X93655584Y-66891241D01*
X94131775Y-65367432D02*
X94131775Y-65938860D01*
X94131775Y-65653146D02*
X93131775Y-65653146D01*
X93131775Y-65653146D02*
X93274632Y-65748384D01*
X93274632Y-65748384D02*
X93369870Y-65843622D01*
X93369870Y-65843622D02*
X93417489Y-65938860D01*
X93227013Y-64986479D02*
X93179394Y-64938860D01*
X93179394Y-64938860D02*
X93131775Y-64843622D01*
X93131775Y-64843622D02*
X93131775Y-64605527D01*
X93131775Y-64605527D02*
X93179394Y-64510289D01*
X93179394Y-64510289D02*
X93227013Y-64462670D01*
X93227013Y-64462670D02*
X93322251Y-64415051D01*
X93322251Y-64415051D02*
X93417489Y-64415051D01*
X93417489Y-64415051D02*
X93560346Y-64462670D01*
X93560346Y-64462670D02*
X94131775Y-65034098D01*
X94131775Y-65034098D02*
X94131775Y-64415051D01*
X110454819Y-102792857D02*
X109978628Y-103126190D01*
X110454819Y-103364285D02*
X109454819Y-103364285D01*
X109454819Y-103364285D02*
X109454819Y-102983333D01*
X109454819Y-102983333D02*
X109502438Y-102888095D01*
X109502438Y-102888095D02*
X109550057Y-102840476D01*
X109550057Y-102840476D02*
X109645295Y-102792857D01*
X109645295Y-102792857D02*
X109788152Y-102792857D01*
X109788152Y-102792857D02*
X109883390Y-102840476D01*
X109883390Y-102840476D02*
X109931009Y-102888095D01*
X109931009Y-102888095D02*
X109978628Y-102983333D01*
X109978628Y-102983333D02*
X109978628Y-103364285D01*
X110454819Y-101840476D02*
X110454819Y-102411904D01*
X110454819Y-102126190D02*
X109454819Y-102126190D01*
X109454819Y-102126190D02*
X109597676Y-102221428D01*
X109597676Y-102221428D02*
X109692914Y-102316666D01*
X109692914Y-102316666D02*
X109740533Y-102411904D01*
X109454819Y-101221428D02*
X109454819Y-101126190D01*
X109454819Y-101126190D02*
X109502438Y-101030952D01*
X109502438Y-101030952D02*
X109550057Y-100983333D01*
X109550057Y-100983333D02*
X109645295Y-100935714D01*
X109645295Y-100935714D02*
X109835771Y-100888095D01*
X109835771Y-100888095D02*
X110073866Y-100888095D01*
X110073866Y-100888095D02*
X110264342Y-100935714D01*
X110264342Y-100935714D02*
X110359580Y-100983333D01*
X110359580Y-100983333D02*
X110407200Y-101030952D01*
X110407200Y-101030952D02*
X110454819Y-101126190D01*
X110454819Y-101126190D02*
X110454819Y-101221428D01*
X110454819Y-101221428D02*
X110407200Y-101316666D01*
X110407200Y-101316666D02*
X110359580Y-101364285D01*
X110359580Y-101364285D02*
X110264342Y-101411904D01*
X110264342Y-101411904D02*
X110073866Y-101459523D01*
X110073866Y-101459523D02*
X109835771Y-101459523D01*
X109835771Y-101459523D02*
X109645295Y-101411904D01*
X109645295Y-101411904D02*
X109550057Y-101364285D01*
X109550057Y-101364285D02*
X109502438Y-101316666D01*
X109502438Y-101316666D02*
X109454819Y-101221428D01*
X120454819Y-102316666D02*
X119978628Y-102649999D01*
X120454819Y-102888094D02*
X119454819Y-102888094D01*
X119454819Y-102888094D02*
X119454819Y-102507142D01*
X119454819Y-102507142D02*
X119502438Y-102411904D01*
X119502438Y-102411904D02*
X119550057Y-102364285D01*
X119550057Y-102364285D02*
X119645295Y-102316666D01*
X119645295Y-102316666D02*
X119788152Y-102316666D01*
X119788152Y-102316666D02*
X119883390Y-102364285D01*
X119883390Y-102364285D02*
X119931009Y-102411904D01*
X119931009Y-102411904D02*
X119978628Y-102507142D01*
X119978628Y-102507142D02*
X119978628Y-102888094D01*
X119883390Y-101745237D02*
X119835771Y-101840475D01*
X119835771Y-101840475D02*
X119788152Y-101888094D01*
X119788152Y-101888094D02*
X119692914Y-101935713D01*
X119692914Y-101935713D02*
X119645295Y-101935713D01*
X119645295Y-101935713D02*
X119550057Y-101888094D01*
X119550057Y-101888094D02*
X119502438Y-101840475D01*
X119502438Y-101840475D02*
X119454819Y-101745237D01*
X119454819Y-101745237D02*
X119454819Y-101554761D01*
X119454819Y-101554761D02*
X119502438Y-101459523D01*
X119502438Y-101459523D02*
X119550057Y-101411904D01*
X119550057Y-101411904D02*
X119645295Y-101364285D01*
X119645295Y-101364285D02*
X119692914Y-101364285D01*
X119692914Y-101364285D02*
X119788152Y-101411904D01*
X119788152Y-101411904D02*
X119835771Y-101459523D01*
X119835771Y-101459523D02*
X119883390Y-101554761D01*
X119883390Y-101554761D02*
X119883390Y-101745237D01*
X119883390Y-101745237D02*
X119931009Y-101840475D01*
X119931009Y-101840475D02*
X119978628Y-101888094D01*
X119978628Y-101888094D02*
X120073866Y-101935713D01*
X120073866Y-101935713D02*
X120264342Y-101935713D01*
X120264342Y-101935713D02*
X120359580Y-101888094D01*
X120359580Y-101888094D02*
X120407200Y-101840475D01*
X120407200Y-101840475D02*
X120454819Y-101745237D01*
X120454819Y-101745237D02*
X120454819Y-101554761D01*
X120454819Y-101554761D02*
X120407200Y-101459523D01*
X120407200Y-101459523D02*
X120359580Y-101411904D01*
X120359580Y-101411904D02*
X120264342Y-101364285D01*
X120264342Y-101364285D02*
X120073866Y-101364285D01*
X120073866Y-101364285D02*
X119978628Y-101411904D01*
X119978628Y-101411904D02*
X119931009Y-101459523D01*
X119931009Y-101459523D02*
X119883390Y-101554761D01*
X100454819Y-102316666D02*
X99978628Y-102649999D01*
X100454819Y-102888094D02*
X99454819Y-102888094D01*
X99454819Y-102888094D02*
X99454819Y-102507142D01*
X99454819Y-102507142D02*
X99502438Y-102411904D01*
X99502438Y-102411904D02*
X99550057Y-102364285D01*
X99550057Y-102364285D02*
X99645295Y-102316666D01*
X99645295Y-102316666D02*
X99788152Y-102316666D01*
X99788152Y-102316666D02*
X99883390Y-102364285D01*
X99883390Y-102364285D02*
X99931009Y-102411904D01*
X99931009Y-102411904D02*
X99978628Y-102507142D01*
X99978628Y-102507142D02*
X99978628Y-102888094D01*
X99454819Y-101459523D02*
X99454819Y-101649999D01*
X99454819Y-101649999D02*
X99502438Y-101745237D01*
X99502438Y-101745237D02*
X99550057Y-101792856D01*
X99550057Y-101792856D02*
X99692914Y-101888094D01*
X99692914Y-101888094D02*
X99883390Y-101935713D01*
X99883390Y-101935713D02*
X100264342Y-101935713D01*
X100264342Y-101935713D02*
X100359580Y-101888094D01*
X100359580Y-101888094D02*
X100407200Y-101840475D01*
X100407200Y-101840475D02*
X100454819Y-101745237D01*
X100454819Y-101745237D02*
X100454819Y-101554761D01*
X100454819Y-101554761D02*
X100407200Y-101459523D01*
X100407200Y-101459523D02*
X100359580Y-101411904D01*
X100359580Y-101411904D02*
X100264342Y-101364285D01*
X100264342Y-101364285D02*
X100026247Y-101364285D01*
X100026247Y-101364285D02*
X99931009Y-101411904D01*
X99931009Y-101411904D02*
X99883390Y-101459523D01*
X99883390Y-101459523D02*
X99835771Y-101554761D01*
X99835771Y-101554761D02*
X99835771Y-101745237D01*
X99835771Y-101745237D02*
X99883390Y-101840475D01*
X99883390Y-101840475D02*
X99931009Y-101888094D01*
X99931009Y-101888094D02*
X100026247Y-101935713D01*
X90454819Y-102316666D02*
X89978628Y-102649999D01*
X90454819Y-102888094D02*
X89454819Y-102888094D01*
X89454819Y-102888094D02*
X89454819Y-102507142D01*
X89454819Y-102507142D02*
X89502438Y-102411904D01*
X89502438Y-102411904D02*
X89550057Y-102364285D01*
X89550057Y-102364285D02*
X89645295Y-102316666D01*
X89645295Y-102316666D02*
X89788152Y-102316666D01*
X89788152Y-102316666D02*
X89883390Y-102364285D01*
X89883390Y-102364285D02*
X89931009Y-102411904D01*
X89931009Y-102411904D02*
X89978628Y-102507142D01*
X89978628Y-102507142D02*
X89978628Y-102888094D01*
X89788152Y-101459523D02*
X90454819Y-101459523D01*
X89407200Y-101697618D02*
X90121485Y-101935713D01*
X90121485Y-101935713D02*
X90121485Y-101316666D01*
X84131775Y-65843622D02*
X83655584Y-66176955D01*
X84131775Y-66415050D02*
X83131775Y-66415050D01*
X83131775Y-66415050D02*
X83131775Y-66034098D01*
X83131775Y-66034098D02*
X83179394Y-65938860D01*
X83179394Y-65938860D02*
X83227013Y-65891241D01*
X83227013Y-65891241D02*
X83322251Y-65843622D01*
X83322251Y-65843622D02*
X83465108Y-65843622D01*
X83465108Y-65843622D02*
X83560346Y-65891241D01*
X83560346Y-65891241D02*
X83607965Y-65938860D01*
X83607965Y-65938860D02*
X83655584Y-66034098D01*
X83655584Y-66034098D02*
X83655584Y-66415050D01*
X83227013Y-65462669D02*
X83179394Y-65415050D01*
X83179394Y-65415050D02*
X83131775Y-65319812D01*
X83131775Y-65319812D02*
X83131775Y-65081717D01*
X83131775Y-65081717D02*
X83179394Y-64986479D01*
X83179394Y-64986479D02*
X83227013Y-64938860D01*
X83227013Y-64938860D02*
X83322251Y-64891241D01*
X83322251Y-64891241D02*
X83417489Y-64891241D01*
X83417489Y-64891241D02*
X83560346Y-64938860D01*
X83560346Y-64938860D02*
X84131775Y-65510288D01*
X84131775Y-65510288D02*
X84131775Y-64891241D01*
X118105527Y-74787013D02*
X118010289Y-74739394D01*
X118010289Y-74739394D02*
X117915051Y-74644156D01*
X117915051Y-74644156D02*
X117772194Y-74501298D01*
X117772194Y-74501298D02*
X117676956Y-74453679D01*
X117676956Y-74453679D02*
X117581718Y-74453679D01*
X117629337Y-74691775D02*
X117534099Y-74644156D01*
X117534099Y-74644156D02*
X117438861Y-74548917D01*
X117438861Y-74548917D02*
X117391242Y-74358441D01*
X117391242Y-74358441D02*
X117391242Y-74025108D01*
X117391242Y-74025108D02*
X117438861Y-73834632D01*
X117438861Y-73834632D02*
X117534099Y-73739394D01*
X117534099Y-73739394D02*
X117629337Y-73691775D01*
X117629337Y-73691775D02*
X117819813Y-73691775D01*
X117819813Y-73691775D02*
X117915051Y-73739394D01*
X117915051Y-73739394D02*
X118010289Y-73834632D01*
X118010289Y-73834632D02*
X118057908Y-74025108D01*
X118057908Y-74025108D02*
X118057908Y-74358441D01*
X118057908Y-74358441D02*
X118010289Y-74548917D01*
X118010289Y-74548917D02*
X117915051Y-74644156D01*
X117915051Y-74644156D02*
X117819813Y-74691775D01*
X117819813Y-74691775D02*
X117629337Y-74691775D01*
X119010289Y-74691775D02*
X118438861Y-74691775D01*
X118724575Y-74691775D02*
X118724575Y-73691775D01*
X118724575Y-73691775D02*
X118629337Y-73834632D01*
X118629337Y-73834632D02*
X118534099Y-73929870D01*
X118534099Y-73929870D02*
X118438861Y-73977489D01*
X119343623Y-73691775D02*
X119962670Y-73691775D01*
X119962670Y-73691775D02*
X119629337Y-74072727D01*
X119629337Y-74072727D02*
X119772194Y-74072727D01*
X119772194Y-74072727D02*
X119867432Y-74120346D01*
X119867432Y-74120346D02*
X119915051Y-74167965D01*
X119915051Y-74167965D02*
X119962670Y-74263203D01*
X119962670Y-74263203D02*
X119962670Y-74501298D01*
X119962670Y-74501298D02*
X119915051Y-74596536D01*
X119915051Y-74596536D02*
X119867432Y-74644156D01*
X119867432Y-74644156D02*
X119772194Y-74691775D01*
X119772194Y-74691775D02*
X119486480Y-74691775D01*
X119486480Y-74691775D02*
X119391242Y-74644156D01*
X119391242Y-74644156D02*
X119343623Y-74596536D01*
X108105527Y-74787013D02*
X108010289Y-74739394D01*
X108010289Y-74739394D02*
X107915051Y-74644156D01*
X107915051Y-74644156D02*
X107772194Y-74501298D01*
X107772194Y-74501298D02*
X107676956Y-74453679D01*
X107676956Y-74453679D02*
X107581718Y-74453679D01*
X107629337Y-74691775D02*
X107534099Y-74644156D01*
X107534099Y-74644156D02*
X107438861Y-74548917D01*
X107438861Y-74548917D02*
X107391242Y-74358441D01*
X107391242Y-74358441D02*
X107391242Y-74025108D01*
X107391242Y-74025108D02*
X107438861Y-73834632D01*
X107438861Y-73834632D02*
X107534099Y-73739394D01*
X107534099Y-73739394D02*
X107629337Y-73691775D01*
X107629337Y-73691775D02*
X107819813Y-73691775D01*
X107819813Y-73691775D02*
X107915051Y-73739394D01*
X107915051Y-73739394D02*
X108010289Y-73834632D01*
X108010289Y-73834632D02*
X108057908Y-74025108D01*
X108057908Y-74025108D02*
X108057908Y-74358441D01*
X108057908Y-74358441D02*
X108010289Y-74548917D01*
X108010289Y-74548917D02*
X107915051Y-74644156D01*
X107915051Y-74644156D02*
X107819813Y-74691775D01*
X107819813Y-74691775D02*
X107629337Y-74691775D01*
X109010289Y-74691775D02*
X108438861Y-74691775D01*
X108724575Y-74691775D02*
X108724575Y-73691775D01*
X108724575Y-73691775D02*
X108629337Y-73834632D01*
X108629337Y-73834632D02*
X108534099Y-73929870D01*
X108534099Y-73929870D02*
X108438861Y-73977489D01*
X109391242Y-73787013D02*
X109438861Y-73739394D01*
X109438861Y-73739394D02*
X109534099Y-73691775D01*
X109534099Y-73691775D02*
X109772194Y-73691775D01*
X109772194Y-73691775D02*
X109867432Y-73739394D01*
X109867432Y-73739394D02*
X109915051Y-73787013D01*
X109915051Y-73787013D02*
X109962670Y-73882251D01*
X109962670Y-73882251D02*
X109962670Y-73977489D01*
X109962670Y-73977489D02*
X109915051Y-74120346D01*
X109915051Y-74120346D02*
X109343623Y-74691775D01*
X109343623Y-74691775D02*
X109962670Y-74691775D01*
X124428571Y-93840057D02*
X124333333Y-93792438D01*
X124333333Y-93792438D02*
X124238095Y-93697200D01*
X124238095Y-93697200D02*
X124095238Y-93554342D01*
X124095238Y-93554342D02*
X124000000Y-93506723D01*
X124000000Y-93506723D02*
X123904762Y-93506723D01*
X123952381Y-93744819D02*
X123857143Y-93697200D01*
X123857143Y-93697200D02*
X123761905Y-93601961D01*
X123761905Y-93601961D02*
X123714286Y-93411485D01*
X123714286Y-93411485D02*
X123714286Y-93078152D01*
X123714286Y-93078152D02*
X123761905Y-92887676D01*
X123761905Y-92887676D02*
X123857143Y-92792438D01*
X123857143Y-92792438D02*
X123952381Y-92744819D01*
X123952381Y-92744819D02*
X124142857Y-92744819D01*
X124142857Y-92744819D02*
X124238095Y-92792438D01*
X124238095Y-92792438D02*
X124333333Y-92887676D01*
X124333333Y-92887676D02*
X124380952Y-93078152D01*
X124380952Y-93078152D02*
X124380952Y-93411485D01*
X124380952Y-93411485D02*
X124333333Y-93601961D01*
X124333333Y-93601961D02*
X124238095Y-93697200D01*
X124238095Y-93697200D02*
X124142857Y-93744819D01*
X124142857Y-93744819D02*
X123952381Y-93744819D01*
X125333333Y-93744819D02*
X124761905Y-93744819D01*
X125047619Y-93744819D02*
X125047619Y-92744819D01*
X125047619Y-92744819D02*
X124952381Y-92887676D01*
X124952381Y-92887676D02*
X124857143Y-92982914D01*
X124857143Y-92982914D02*
X124761905Y-93030533D01*
X126285714Y-93744819D02*
X125714286Y-93744819D01*
X126000000Y-93744819D02*
X126000000Y-92744819D01*
X126000000Y-92744819D02*
X125904762Y-92887676D01*
X125904762Y-92887676D02*
X125809524Y-92982914D01*
X125809524Y-92982914D02*
X125714286Y-93030533D01*
X134428571Y-93990057D02*
X134333333Y-93942438D01*
X134333333Y-93942438D02*
X134238095Y-93847200D01*
X134238095Y-93847200D02*
X134095238Y-93704342D01*
X134095238Y-93704342D02*
X134000000Y-93656723D01*
X134000000Y-93656723D02*
X133904762Y-93656723D01*
X133952381Y-93894819D02*
X133857143Y-93847200D01*
X133857143Y-93847200D02*
X133761905Y-93751961D01*
X133761905Y-93751961D02*
X133714286Y-93561485D01*
X133714286Y-93561485D02*
X133714286Y-93228152D01*
X133714286Y-93228152D02*
X133761905Y-93037676D01*
X133761905Y-93037676D02*
X133857143Y-92942438D01*
X133857143Y-92942438D02*
X133952381Y-92894819D01*
X133952381Y-92894819D02*
X134142857Y-92894819D01*
X134142857Y-92894819D02*
X134238095Y-92942438D01*
X134238095Y-92942438D02*
X134333333Y-93037676D01*
X134333333Y-93037676D02*
X134380952Y-93228152D01*
X134380952Y-93228152D02*
X134380952Y-93561485D01*
X134380952Y-93561485D02*
X134333333Y-93751961D01*
X134333333Y-93751961D02*
X134238095Y-93847200D01*
X134238095Y-93847200D02*
X134142857Y-93894819D01*
X134142857Y-93894819D02*
X133952381Y-93894819D01*
X135333333Y-93894819D02*
X134761905Y-93894819D01*
X135047619Y-93894819D02*
X135047619Y-92894819D01*
X135047619Y-92894819D02*
X134952381Y-93037676D01*
X134952381Y-93037676D02*
X134857143Y-93132914D01*
X134857143Y-93132914D02*
X134761905Y-93180533D01*
X135952381Y-92894819D02*
X136047619Y-92894819D01*
X136047619Y-92894819D02*
X136142857Y-92942438D01*
X136142857Y-92942438D02*
X136190476Y-92990057D01*
X136190476Y-92990057D02*
X136238095Y-93085295D01*
X136238095Y-93085295D02*
X136285714Y-93275771D01*
X136285714Y-93275771D02*
X136285714Y-93513866D01*
X136285714Y-93513866D02*
X136238095Y-93704342D01*
X136238095Y-93704342D02*
X136190476Y-93799580D01*
X136190476Y-93799580D02*
X136142857Y-93847200D01*
X136142857Y-93847200D02*
X136047619Y-93894819D01*
X136047619Y-93894819D02*
X135952381Y-93894819D01*
X135952381Y-93894819D02*
X135857143Y-93847200D01*
X135857143Y-93847200D02*
X135809524Y-93799580D01*
X135809524Y-93799580D02*
X135761905Y-93704342D01*
X135761905Y-93704342D02*
X135714286Y-93513866D01*
X135714286Y-93513866D02*
X135714286Y-93275771D01*
X135714286Y-93275771D02*
X135761905Y-93085295D01*
X135761905Y-93085295D02*
X135809524Y-92990057D01*
X135809524Y-92990057D02*
X135857143Y-92942438D01*
X135857143Y-92942438D02*
X135952381Y-92894819D01*
X128581717Y-74787013D02*
X128486479Y-74739394D01*
X128486479Y-74739394D02*
X128391241Y-74644156D01*
X128391241Y-74644156D02*
X128248384Y-74501298D01*
X128248384Y-74501298D02*
X128153146Y-74453679D01*
X128153146Y-74453679D02*
X128057908Y-74453679D01*
X128105527Y-74691775D02*
X128010289Y-74644156D01*
X128010289Y-74644156D02*
X127915051Y-74548917D01*
X127915051Y-74548917D02*
X127867432Y-74358441D01*
X127867432Y-74358441D02*
X127867432Y-74025108D01*
X127867432Y-74025108D02*
X127915051Y-73834632D01*
X127915051Y-73834632D02*
X128010289Y-73739394D01*
X128010289Y-73739394D02*
X128105527Y-73691775D01*
X128105527Y-73691775D02*
X128296003Y-73691775D01*
X128296003Y-73691775D02*
X128391241Y-73739394D01*
X128391241Y-73739394D02*
X128486479Y-73834632D01*
X128486479Y-73834632D02*
X128534098Y-74025108D01*
X128534098Y-74025108D02*
X128534098Y-74358441D01*
X128534098Y-74358441D02*
X128486479Y-74548917D01*
X128486479Y-74548917D02*
X128391241Y-74644156D01*
X128391241Y-74644156D02*
X128296003Y-74691775D01*
X128296003Y-74691775D02*
X128105527Y-74691775D01*
X129010289Y-74691775D02*
X129200765Y-74691775D01*
X129200765Y-74691775D02*
X129296003Y-74644156D01*
X129296003Y-74644156D02*
X129343622Y-74596536D01*
X129343622Y-74596536D02*
X129438860Y-74453679D01*
X129438860Y-74453679D02*
X129486479Y-74263203D01*
X129486479Y-74263203D02*
X129486479Y-73882251D01*
X129486479Y-73882251D02*
X129438860Y-73787013D01*
X129438860Y-73787013D02*
X129391241Y-73739394D01*
X129391241Y-73739394D02*
X129296003Y-73691775D01*
X129296003Y-73691775D02*
X129105527Y-73691775D01*
X129105527Y-73691775D02*
X129010289Y-73739394D01*
X129010289Y-73739394D02*
X128962670Y-73787013D01*
X128962670Y-73787013D02*
X128915051Y-73882251D01*
X128915051Y-73882251D02*
X128915051Y-74120346D01*
X128915051Y-74120346D02*
X128962670Y-74215584D01*
X128962670Y-74215584D02*
X129010289Y-74263203D01*
X129010289Y-74263203D02*
X129105527Y-74310822D01*
X129105527Y-74310822D02*
X129296003Y-74310822D01*
X129296003Y-74310822D02*
X129391241Y-74263203D01*
X129391241Y-74263203D02*
X129438860Y-74215584D01*
X129438860Y-74215584D02*
X129486479Y-74120346D01*
X131990057Y-89095238D02*
X131942438Y-89190476D01*
X131942438Y-89190476D02*
X131847200Y-89285714D01*
X131847200Y-89285714D02*
X131704342Y-89428571D01*
X131704342Y-89428571D02*
X131656723Y-89523809D01*
X131656723Y-89523809D02*
X131656723Y-89619047D01*
X131894819Y-89571428D02*
X131847200Y-89666666D01*
X131847200Y-89666666D02*
X131751961Y-89761904D01*
X131751961Y-89761904D02*
X131561485Y-89809523D01*
X131561485Y-89809523D02*
X131228152Y-89809523D01*
X131228152Y-89809523D02*
X131037676Y-89761904D01*
X131037676Y-89761904D02*
X130942438Y-89666666D01*
X130942438Y-89666666D02*
X130894819Y-89571428D01*
X130894819Y-89571428D02*
X130894819Y-89380952D01*
X130894819Y-89380952D02*
X130942438Y-89285714D01*
X130942438Y-89285714D02*
X131037676Y-89190476D01*
X131037676Y-89190476D02*
X131228152Y-89142857D01*
X131228152Y-89142857D02*
X131561485Y-89142857D01*
X131561485Y-89142857D02*
X131751961Y-89190476D01*
X131751961Y-89190476D02*
X131847200Y-89285714D01*
X131847200Y-89285714D02*
X131894819Y-89380952D01*
X131894819Y-89380952D02*
X131894819Y-89571428D01*
X131323390Y-88571428D02*
X131275771Y-88666666D01*
X131275771Y-88666666D02*
X131228152Y-88714285D01*
X131228152Y-88714285D02*
X131132914Y-88761904D01*
X131132914Y-88761904D02*
X131085295Y-88761904D01*
X131085295Y-88761904D02*
X130990057Y-88714285D01*
X130990057Y-88714285D02*
X130942438Y-88666666D01*
X130942438Y-88666666D02*
X130894819Y-88571428D01*
X130894819Y-88571428D02*
X130894819Y-88380952D01*
X130894819Y-88380952D02*
X130942438Y-88285714D01*
X130942438Y-88285714D02*
X130990057Y-88238095D01*
X130990057Y-88238095D02*
X131085295Y-88190476D01*
X131085295Y-88190476D02*
X131132914Y-88190476D01*
X131132914Y-88190476D02*
X131228152Y-88238095D01*
X131228152Y-88238095D02*
X131275771Y-88285714D01*
X131275771Y-88285714D02*
X131323390Y-88380952D01*
X131323390Y-88380952D02*
X131323390Y-88571428D01*
X131323390Y-88571428D02*
X131371009Y-88666666D01*
X131371009Y-88666666D02*
X131418628Y-88714285D01*
X131418628Y-88714285D02*
X131513866Y-88761904D01*
X131513866Y-88761904D02*
X131704342Y-88761904D01*
X131704342Y-88761904D02*
X131799580Y-88714285D01*
X131799580Y-88714285D02*
X131847200Y-88666666D01*
X131847200Y-88666666D02*
X131894819Y-88571428D01*
X131894819Y-88571428D02*
X131894819Y-88380952D01*
X131894819Y-88380952D02*
X131847200Y-88285714D01*
X131847200Y-88285714D02*
X131799580Y-88238095D01*
X131799580Y-88238095D02*
X131704342Y-88190476D01*
X131704342Y-88190476D02*
X131513866Y-88190476D01*
X131513866Y-88190476D02*
X131418628Y-88238095D01*
X131418628Y-88238095D02*
X131371009Y-88285714D01*
X131371009Y-88285714D02*
X131323390Y-88380952D01*
X131990057Y-79095238D02*
X131942438Y-79190476D01*
X131942438Y-79190476D02*
X131847200Y-79285714D01*
X131847200Y-79285714D02*
X131704342Y-79428571D01*
X131704342Y-79428571D02*
X131656723Y-79523809D01*
X131656723Y-79523809D02*
X131656723Y-79619047D01*
X131894819Y-79571428D02*
X131847200Y-79666666D01*
X131847200Y-79666666D02*
X131751961Y-79761904D01*
X131751961Y-79761904D02*
X131561485Y-79809523D01*
X131561485Y-79809523D02*
X131228152Y-79809523D01*
X131228152Y-79809523D02*
X131037676Y-79761904D01*
X131037676Y-79761904D02*
X130942438Y-79666666D01*
X130942438Y-79666666D02*
X130894819Y-79571428D01*
X130894819Y-79571428D02*
X130894819Y-79380952D01*
X130894819Y-79380952D02*
X130942438Y-79285714D01*
X130942438Y-79285714D02*
X131037676Y-79190476D01*
X131037676Y-79190476D02*
X131228152Y-79142857D01*
X131228152Y-79142857D02*
X131561485Y-79142857D01*
X131561485Y-79142857D02*
X131751961Y-79190476D01*
X131751961Y-79190476D02*
X131847200Y-79285714D01*
X131847200Y-79285714D02*
X131894819Y-79380952D01*
X131894819Y-79380952D02*
X131894819Y-79571428D01*
X130894819Y-78809523D02*
X130894819Y-78142857D01*
X130894819Y-78142857D02*
X131894819Y-78571428D01*
X98581717Y-74787013D02*
X98486479Y-74739394D01*
X98486479Y-74739394D02*
X98391241Y-74644156D01*
X98391241Y-74644156D02*
X98248384Y-74501298D01*
X98248384Y-74501298D02*
X98153146Y-74453679D01*
X98153146Y-74453679D02*
X98057908Y-74453679D01*
X98105527Y-74691775D02*
X98010289Y-74644156D01*
X98010289Y-74644156D02*
X97915051Y-74548917D01*
X97915051Y-74548917D02*
X97867432Y-74358441D01*
X97867432Y-74358441D02*
X97867432Y-74025108D01*
X97867432Y-74025108D02*
X97915051Y-73834632D01*
X97915051Y-73834632D02*
X98010289Y-73739394D01*
X98010289Y-73739394D02*
X98105527Y-73691775D01*
X98105527Y-73691775D02*
X98296003Y-73691775D01*
X98296003Y-73691775D02*
X98391241Y-73739394D01*
X98391241Y-73739394D02*
X98486479Y-73834632D01*
X98486479Y-73834632D02*
X98534098Y-74025108D01*
X98534098Y-74025108D02*
X98534098Y-74358441D01*
X98534098Y-74358441D02*
X98486479Y-74548917D01*
X98486479Y-74548917D02*
X98391241Y-74644156D01*
X98391241Y-74644156D02*
X98296003Y-74691775D01*
X98296003Y-74691775D02*
X98105527Y-74691775D01*
X99391241Y-73691775D02*
X99200765Y-73691775D01*
X99200765Y-73691775D02*
X99105527Y-73739394D01*
X99105527Y-73739394D02*
X99057908Y-73787013D01*
X99057908Y-73787013D02*
X98962670Y-73929870D01*
X98962670Y-73929870D02*
X98915051Y-74120346D01*
X98915051Y-74120346D02*
X98915051Y-74501298D01*
X98915051Y-74501298D02*
X98962670Y-74596536D01*
X98962670Y-74596536D02*
X99010289Y-74644156D01*
X99010289Y-74644156D02*
X99105527Y-74691775D01*
X99105527Y-74691775D02*
X99296003Y-74691775D01*
X99296003Y-74691775D02*
X99391241Y-74644156D01*
X99391241Y-74644156D02*
X99438860Y-74596536D01*
X99438860Y-74596536D02*
X99486479Y-74501298D01*
X99486479Y-74501298D02*
X99486479Y-74263203D01*
X99486479Y-74263203D02*
X99438860Y-74167965D01*
X99438860Y-74167965D02*
X99391241Y-74120346D01*
X99391241Y-74120346D02*
X99296003Y-74072727D01*
X99296003Y-74072727D02*
X99105527Y-74072727D01*
X99105527Y-74072727D02*
X99010289Y-74120346D01*
X99010289Y-74120346D02*
X98962670Y-74167965D01*
X98962670Y-74167965D02*
X98915051Y-74263203D01*
X104904761Y-93990057D02*
X104809523Y-93942438D01*
X104809523Y-93942438D02*
X104714285Y-93847200D01*
X104714285Y-93847200D02*
X104571428Y-93704342D01*
X104571428Y-93704342D02*
X104476190Y-93656723D01*
X104476190Y-93656723D02*
X104380952Y-93656723D01*
X104428571Y-93894819D02*
X104333333Y-93847200D01*
X104333333Y-93847200D02*
X104238095Y-93751961D01*
X104238095Y-93751961D02*
X104190476Y-93561485D01*
X104190476Y-93561485D02*
X104190476Y-93228152D01*
X104190476Y-93228152D02*
X104238095Y-93037676D01*
X104238095Y-93037676D02*
X104333333Y-92942438D01*
X104333333Y-92942438D02*
X104428571Y-92894819D01*
X104428571Y-92894819D02*
X104619047Y-92894819D01*
X104619047Y-92894819D02*
X104714285Y-92942438D01*
X104714285Y-92942438D02*
X104809523Y-93037676D01*
X104809523Y-93037676D02*
X104857142Y-93228152D01*
X104857142Y-93228152D02*
X104857142Y-93561485D01*
X104857142Y-93561485D02*
X104809523Y-93751961D01*
X104809523Y-93751961D02*
X104714285Y-93847200D01*
X104714285Y-93847200D02*
X104619047Y-93894819D01*
X104619047Y-93894819D02*
X104428571Y-93894819D01*
X105761904Y-92894819D02*
X105285714Y-92894819D01*
X105285714Y-92894819D02*
X105238095Y-93371009D01*
X105238095Y-93371009D02*
X105285714Y-93323390D01*
X105285714Y-93323390D02*
X105380952Y-93275771D01*
X105380952Y-93275771D02*
X105619047Y-93275771D01*
X105619047Y-93275771D02*
X105714285Y-93323390D01*
X105714285Y-93323390D02*
X105761904Y-93371009D01*
X105761904Y-93371009D02*
X105809523Y-93466247D01*
X105809523Y-93466247D02*
X105809523Y-93704342D01*
X105809523Y-93704342D02*
X105761904Y-93799580D01*
X105761904Y-93799580D02*
X105714285Y-93847200D01*
X105714285Y-93847200D02*
X105619047Y-93894819D01*
X105619047Y-93894819D02*
X105380952Y-93894819D01*
X105380952Y-93894819D02*
X105285714Y-93847200D01*
X105285714Y-93847200D02*
X105238095Y-93799580D01*
X114904761Y-93990057D02*
X114809523Y-93942438D01*
X114809523Y-93942438D02*
X114714285Y-93847200D01*
X114714285Y-93847200D02*
X114571428Y-93704342D01*
X114571428Y-93704342D02*
X114476190Y-93656723D01*
X114476190Y-93656723D02*
X114380952Y-93656723D01*
X114428571Y-93894819D02*
X114333333Y-93847200D01*
X114333333Y-93847200D02*
X114238095Y-93751961D01*
X114238095Y-93751961D02*
X114190476Y-93561485D01*
X114190476Y-93561485D02*
X114190476Y-93228152D01*
X114190476Y-93228152D02*
X114238095Y-93037676D01*
X114238095Y-93037676D02*
X114333333Y-92942438D01*
X114333333Y-92942438D02*
X114428571Y-92894819D01*
X114428571Y-92894819D02*
X114619047Y-92894819D01*
X114619047Y-92894819D02*
X114714285Y-92942438D01*
X114714285Y-92942438D02*
X114809523Y-93037676D01*
X114809523Y-93037676D02*
X114857142Y-93228152D01*
X114857142Y-93228152D02*
X114857142Y-93561485D01*
X114857142Y-93561485D02*
X114809523Y-93751961D01*
X114809523Y-93751961D02*
X114714285Y-93847200D01*
X114714285Y-93847200D02*
X114619047Y-93894819D01*
X114619047Y-93894819D02*
X114428571Y-93894819D01*
X115714285Y-93228152D02*
X115714285Y-93894819D01*
X115476190Y-92847200D02*
X115238095Y-93561485D01*
X115238095Y-93561485D02*
X115857142Y-93561485D01*
X94904761Y-93990057D02*
X94809523Y-93942438D01*
X94809523Y-93942438D02*
X94714285Y-93847200D01*
X94714285Y-93847200D02*
X94571428Y-93704342D01*
X94571428Y-93704342D02*
X94476190Y-93656723D01*
X94476190Y-93656723D02*
X94380952Y-93656723D01*
X94428571Y-93894819D02*
X94333333Y-93847200D01*
X94333333Y-93847200D02*
X94238095Y-93751961D01*
X94238095Y-93751961D02*
X94190476Y-93561485D01*
X94190476Y-93561485D02*
X94190476Y-93228152D01*
X94190476Y-93228152D02*
X94238095Y-93037676D01*
X94238095Y-93037676D02*
X94333333Y-92942438D01*
X94333333Y-92942438D02*
X94428571Y-92894819D01*
X94428571Y-92894819D02*
X94619047Y-92894819D01*
X94619047Y-92894819D02*
X94714285Y-92942438D01*
X94714285Y-92942438D02*
X94809523Y-93037676D01*
X94809523Y-93037676D02*
X94857142Y-93228152D01*
X94857142Y-93228152D02*
X94857142Y-93561485D01*
X94857142Y-93561485D02*
X94809523Y-93751961D01*
X94809523Y-93751961D02*
X94714285Y-93847200D01*
X94714285Y-93847200D02*
X94619047Y-93894819D01*
X94619047Y-93894819D02*
X94428571Y-93894819D01*
X95190476Y-92894819D02*
X95809523Y-92894819D01*
X95809523Y-92894819D02*
X95476190Y-93275771D01*
X95476190Y-93275771D02*
X95619047Y-93275771D01*
X95619047Y-93275771D02*
X95714285Y-93323390D01*
X95714285Y-93323390D02*
X95761904Y-93371009D01*
X95761904Y-93371009D02*
X95809523Y-93466247D01*
X95809523Y-93466247D02*
X95809523Y-93704342D01*
X95809523Y-93704342D02*
X95761904Y-93799580D01*
X95761904Y-93799580D02*
X95714285Y-93847200D01*
X95714285Y-93847200D02*
X95619047Y-93894819D01*
X95619047Y-93894819D02*
X95333333Y-93894819D01*
X95333333Y-93894819D02*
X95238095Y-93847200D01*
X95238095Y-93847200D02*
X95190476Y-93799580D01*
X84904761Y-93990057D02*
X84809523Y-93942438D01*
X84809523Y-93942438D02*
X84714285Y-93847200D01*
X84714285Y-93847200D02*
X84571428Y-93704342D01*
X84571428Y-93704342D02*
X84476190Y-93656723D01*
X84476190Y-93656723D02*
X84380952Y-93656723D01*
X84428571Y-93894819D02*
X84333333Y-93847200D01*
X84333333Y-93847200D02*
X84238095Y-93751961D01*
X84238095Y-93751961D02*
X84190476Y-93561485D01*
X84190476Y-93561485D02*
X84190476Y-93228152D01*
X84190476Y-93228152D02*
X84238095Y-93037676D01*
X84238095Y-93037676D02*
X84333333Y-92942438D01*
X84333333Y-92942438D02*
X84428571Y-92894819D01*
X84428571Y-92894819D02*
X84619047Y-92894819D01*
X84619047Y-92894819D02*
X84714285Y-92942438D01*
X84714285Y-92942438D02*
X84809523Y-93037676D01*
X84809523Y-93037676D02*
X84857142Y-93228152D01*
X84857142Y-93228152D02*
X84857142Y-93561485D01*
X84857142Y-93561485D02*
X84809523Y-93751961D01*
X84809523Y-93751961D02*
X84714285Y-93847200D01*
X84714285Y-93847200D02*
X84619047Y-93894819D01*
X84619047Y-93894819D02*
X84428571Y-93894819D01*
X85238095Y-92990057D02*
X85285714Y-92942438D01*
X85285714Y-92942438D02*
X85380952Y-92894819D01*
X85380952Y-92894819D02*
X85619047Y-92894819D01*
X85619047Y-92894819D02*
X85714285Y-92942438D01*
X85714285Y-92942438D02*
X85761904Y-92990057D01*
X85761904Y-92990057D02*
X85809523Y-93085295D01*
X85809523Y-93085295D02*
X85809523Y-93180533D01*
X85809523Y-93180533D02*
X85761904Y-93323390D01*
X85761904Y-93323390D02*
X85190476Y-93894819D01*
X85190476Y-93894819D02*
X85809523Y-93894819D01*
X88581717Y-74787013D02*
X88486479Y-74739394D01*
X88486479Y-74739394D02*
X88391241Y-74644156D01*
X88391241Y-74644156D02*
X88248384Y-74501298D01*
X88248384Y-74501298D02*
X88153146Y-74453679D01*
X88153146Y-74453679D02*
X88057908Y-74453679D01*
X88105527Y-74691775D02*
X88010289Y-74644156D01*
X88010289Y-74644156D02*
X87915051Y-74548917D01*
X87915051Y-74548917D02*
X87867432Y-74358441D01*
X87867432Y-74358441D02*
X87867432Y-74025108D01*
X87867432Y-74025108D02*
X87915051Y-73834632D01*
X87915051Y-73834632D02*
X88010289Y-73739394D01*
X88010289Y-73739394D02*
X88105527Y-73691775D01*
X88105527Y-73691775D02*
X88296003Y-73691775D01*
X88296003Y-73691775D02*
X88391241Y-73739394D01*
X88391241Y-73739394D02*
X88486479Y-73834632D01*
X88486479Y-73834632D02*
X88534098Y-74025108D01*
X88534098Y-74025108D02*
X88534098Y-74358441D01*
X88534098Y-74358441D02*
X88486479Y-74548917D01*
X88486479Y-74548917D02*
X88391241Y-74644156D01*
X88391241Y-74644156D02*
X88296003Y-74691775D01*
X88296003Y-74691775D02*
X88105527Y-74691775D01*
X89486479Y-74691775D02*
X88915051Y-74691775D01*
X89200765Y-74691775D02*
X89200765Y-73691775D01*
X89200765Y-73691775D02*
X89105527Y-73834632D01*
X89105527Y-73834632D02*
X89010289Y-73929870D01*
X89010289Y-73929870D02*
X88915051Y-73977489D01*
X84666666Y-148414819D02*
X84666666Y-149129104D01*
X84666666Y-149129104D02*
X84619047Y-149271961D01*
X84619047Y-149271961D02*
X84523809Y-149367200D01*
X84523809Y-149367200D02*
X84380952Y-149414819D01*
X84380952Y-149414819D02*
X84285714Y-149414819D01*
X85047619Y-148414819D02*
X85666666Y-148414819D01*
X85666666Y-148414819D02*
X85333333Y-148795771D01*
X85333333Y-148795771D02*
X85476190Y-148795771D01*
X85476190Y-148795771D02*
X85571428Y-148843390D01*
X85571428Y-148843390D02*
X85619047Y-148891009D01*
X85619047Y-148891009D02*
X85666666Y-148986247D01*
X85666666Y-148986247D02*
X85666666Y-149224342D01*
X85666666Y-149224342D02*
X85619047Y-149319580D01*
X85619047Y-149319580D02*
X85571428Y-149367200D01*
X85571428Y-149367200D02*
X85476190Y-149414819D01*
X85476190Y-149414819D02*
X85190476Y-149414819D01*
X85190476Y-149414819D02*
X85095238Y-149367200D01*
X85095238Y-149367200D02*
X85047619Y-149319580D01*
X114666666Y-148414819D02*
X114666666Y-149129104D01*
X114666666Y-149129104D02*
X114619047Y-149271961D01*
X114619047Y-149271961D02*
X114523809Y-149367200D01*
X114523809Y-149367200D02*
X114380952Y-149414819D01*
X114380952Y-149414819D02*
X114285714Y-149414819D01*
X115095238Y-148510057D02*
X115142857Y-148462438D01*
X115142857Y-148462438D02*
X115238095Y-148414819D01*
X115238095Y-148414819D02*
X115476190Y-148414819D01*
X115476190Y-148414819D02*
X115571428Y-148462438D01*
X115571428Y-148462438D02*
X115619047Y-148510057D01*
X115619047Y-148510057D02*
X115666666Y-148605295D01*
X115666666Y-148605295D02*
X115666666Y-148700533D01*
X115666666Y-148700533D02*
X115619047Y-148843390D01*
X115619047Y-148843390D02*
X115047619Y-149414819D01*
X115047619Y-149414819D02*
X115666666Y-149414819D01*
X93354819Y-84063333D02*
X94069104Y-84063333D01*
X94069104Y-84063333D02*
X94211961Y-84110952D01*
X94211961Y-84110952D02*
X94307200Y-84206190D01*
X94307200Y-84206190D02*
X94354819Y-84349047D01*
X94354819Y-84349047D02*
X94354819Y-84444285D01*
X94354819Y-83063333D02*
X94354819Y-83634761D01*
X94354819Y-83349047D02*
X93354819Y-83349047D01*
X93354819Y-83349047D02*
X93497676Y-83444285D01*
X93497676Y-83444285D02*
X93592914Y-83539523D01*
X93592914Y-83539523D02*
X93640533Y-83634761D01*
X144238095Y-141654819D02*
X144238095Y-140654819D01*
X144238095Y-141131009D02*
X144809523Y-141131009D01*
X144809523Y-141654819D02*
X144809523Y-140654819D01*
X145238095Y-140750057D02*
X145285714Y-140702438D01*
X145285714Y-140702438D02*
X145380952Y-140654819D01*
X145380952Y-140654819D02*
X145619047Y-140654819D01*
X145619047Y-140654819D02*
X145714285Y-140702438D01*
X145714285Y-140702438D02*
X145761904Y-140750057D01*
X145761904Y-140750057D02*
X145809523Y-140845295D01*
X145809523Y-140845295D02*
X145809523Y-140940533D01*
X145809523Y-140940533D02*
X145761904Y-141083390D01*
X145761904Y-141083390D02*
X145190476Y-141654819D01*
X145190476Y-141654819D02*
X145809523Y-141654819D01*
X134238095Y-141654819D02*
X134238095Y-140654819D01*
X134238095Y-141131009D02*
X134809523Y-141131009D01*
X134809523Y-141654819D02*
X134809523Y-140654819D01*
X135809523Y-141654819D02*
X135238095Y-141654819D01*
X135523809Y-141654819D02*
X135523809Y-140654819D01*
X135523809Y-140654819D02*
X135428571Y-140797676D01*
X135428571Y-140797676D02*
X135333333Y-140892914D01*
X135333333Y-140892914D02*
X135238095Y-140940533D01*
X93830180Y-112431905D02*
X94830180Y-112431905D01*
X94830180Y-112431905D02*
X94830180Y-112670000D01*
X94830180Y-112670000D02*
X94782561Y-112812857D01*
X94782561Y-112812857D02*
X94687323Y-112908095D01*
X94687323Y-112908095D02*
X94592085Y-112955714D01*
X94592085Y-112955714D02*
X94401609Y-113003333D01*
X94401609Y-113003333D02*
X94258752Y-113003333D01*
X94258752Y-113003333D02*
X94068276Y-112955714D01*
X94068276Y-112955714D02*
X93973038Y-112908095D01*
X93973038Y-112908095D02*
X93877800Y-112812857D01*
X93877800Y-112812857D02*
X93830180Y-112670000D01*
X93830180Y-112670000D02*
X93830180Y-112431905D01*
X94830180Y-113622381D02*
X94830180Y-113717619D01*
X94830180Y-113717619D02*
X94782561Y-113812857D01*
X94782561Y-113812857D02*
X94734942Y-113860476D01*
X94734942Y-113860476D02*
X94639704Y-113908095D01*
X94639704Y-113908095D02*
X94449228Y-113955714D01*
X94449228Y-113955714D02*
X94211133Y-113955714D01*
X94211133Y-113955714D02*
X94020657Y-113908095D01*
X94020657Y-113908095D02*
X93925419Y-113860476D01*
X93925419Y-113860476D02*
X93877800Y-113812857D01*
X93877800Y-113812857D02*
X93830180Y-113717619D01*
X93830180Y-113717619D02*
X93830180Y-113622381D01*
X93830180Y-113622381D02*
X93877800Y-113527143D01*
X93877800Y-113527143D02*
X93925419Y-113479524D01*
X93925419Y-113479524D02*
X94020657Y-113431905D01*
X94020657Y-113431905D02*
X94211133Y-113384286D01*
X94211133Y-113384286D02*
X94449228Y-113384286D01*
X94449228Y-113384286D02*
X94639704Y-113431905D01*
X94639704Y-113431905D02*
X94734942Y-113479524D01*
X94734942Y-113479524D02*
X94782561Y-113527143D01*
X94782561Y-113527143D02*
X94830180Y-113622381D01*
D13*
%TO.C,J4*%
X123670000Y-111900000D02*
X126330000Y-111900000D01*
X126330000Y-111900000D02*
X126330000Y-147520000D01*
X123670000Y-109300000D02*
X125000000Y-109300000D01*
X123670000Y-111900000D02*
X123670000Y-147520000D01*
X123670000Y-110630000D02*
X123670000Y-109300000D01*
X123670000Y-147520000D02*
X126330000Y-147520000D01*
%TO.C,R26*%
X114586956Y-68949892D02*
X114586956Y-70404020D01*
X112766956Y-68949892D02*
X112766956Y-70404020D01*
%TO.C,R24*%
X102766956Y-68949892D02*
X102766956Y-70404020D01*
X104586956Y-68949892D02*
X104586956Y-70404020D01*
%TO.C,R22*%
X129090000Y-98727064D02*
X129090000Y-97272936D01*
X130910000Y-98727064D02*
X130910000Y-97272936D01*
%TO.C,R20*%
X139090000Y-98877064D02*
X139090000Y-97422936D01*
X140910000Y-98877064D02*
X140910000Y-97422936D01*
%TO.C,R18*%
X122766956Y-68949892D02*
X122766956Y-70404020D01*
X124586956Y-68949892D02*
X124586956Y-70404020D01*
%TO.C,R16*%
X136877064Y-84910000D02*
X135422936Y-84910000D01*
X136877064Y-83090000D02*
X135422936Y-83090000D01*
%TO.C,R14*%
X136877064Y-74910000D02*
X135422936Y-74910000D01*
X136877064Y-73090000D02*
X135422936Y-73090000D01*
%TO.C,R12*%
X92766956Y-68949892D02*
X92766956Y-70404020D01*
X94586956Y-68949892D02*
X94586956Y-70404020D01*
%TO.C,R10*%
X110910000Y-98877064D02*
X110910000Y-97422936D01*
X109090000Y-98877064D02*
X109090000Y-97422936D01*
%TO.C,R8*%
X120910000Y-98877064D02*
X120910000Y-97422936D01*
X119090000Y-98877064D02*
X119090000Y-97422936D01*
%TO.C,R6*%
X99090000Y-98877064D02*
X99090000Y-97422936D01*
X100910000Y-98877064D02*
X100910000Y-97422936D01*
%TO.C,R4*%
X90910000Y-98877064D02*
X90910000Y-97422936D01*
X89090000Y-98877064D02*
X89090000Y-97422936D01*
%TO.C,R2*%
X82766956Y-68949892D02*
X82766956Y-70404020D01*
X84586956Y-68949892D02*
X84586956Y-70404020D01*
%TO.C,Q13*%
X118676956Y-73276956D02*
G75*
G03*
X120515434Y-68838478I0J2600000D01*
G01*
X116838478Y-68838478D02*
G75*
G03*
X118676956Y-73276956I1838478J-1838478D01*
G01*
X120476956Y-68826956D02*
X116876956Y-68826956D01*
%TO.C,Q12*%
X108676956Y-73276956D02*
G75*
G03*
X110515434Y-68838478I0J2600000D01*
G01*
X106838478Y-68838478D02*
G75*
G03*
X108676956Y-73276956I1838478J-1838478D01*
G01*
X110476956Y-68826956D02*
X106876956Y-68826956D01*
%TO.C,Q11*%
X123200000Y-98700000D02*
X126800000Y-98700000D01*
X126838478Y-98688478D02*
G75*
G03*
X125000000Y-94250000I-1838478J1838478D01*
G01*
X125000000Y-94250000D02*
G75*
G03*
X123161522Y-98688478I0J-2600000D01*
G01*
%TO.C,Q10*%
X133200000Y-98850000D02*
X136800000Y-98850000D01*
X136838478Y-98838478D02*
G75*
G03*
X135000000Y-94400000I-1838478J1838478D01*
G01*
X135000000Y-94400000D02*
G75*
G03*
X133161522Y-98838478I0J-2600000D01*
G01*
%TO.C,Q9*%
X128676956Y-73276956D02*
G75*
G03*
X130515434Y-68838478I0J2600000D01*
G01*
X126838478Y-68838478D02*
G75*
G03*
X128676956Y-73276956I1838478J-1838478D01*
G01*
X130476956Y-68826956D02*
X126876956Y-68826956D01*
%TO.C,Q8*%
X136850000Y-90800000D02*
X136850000Y-87200000D01*
X136838478Y-87161522D02*
G75*
G03*
X132400000Y-89000000I-1838478J-1838478D01*
G01*
X132400000Y-89000000D02*
G75*
G03*
X136838478Y-90838478I2600000J0D01*
G01*
%TO.C,Q7*%
X136850000Y-80800000D02*
X136850000Y-77200000D01*
X136838478Y-77161522D02*
G75*
G03*
X132400000Y-79000000I-1838478J-1838478D01*
G01*
X132400000Y-79000000D02*
G75*
G03*
X136838478Y-80838478I2600000J0D01*
G01*
%TO.C,Q6*%
X100476956Y-68826956D02*
X96876956Y-68826956D01*
X96838478Y-68838478D02*
G75*
G03*
X98676956Y-73276956I1838478J-1838478D01*
G01*
X98676956Y-73276956D02*
G75*
G03*
X100515434Y-68838478I0J2600000D01*
G01*
%TO.C,Q5*%
X105000000Y-94400000D02*
G75*
G03*
X103161522Y-98838478I0J-2600000D01*
G01*
X106838478Y-98838478D02*
G75*
G03*
X105000000Y-94400000I-1838478J1838478D01*
G01*
X103200000Y-98850000D02*
X106800000Y-98850000D01*
%TO.C,Q4*%
X113200000Y-98850000D02*
X116800000Y-98850000D01*
X116838478Y-98838478D02*
G75*
G03*
X115000000Y-94400000I-1838478J1838478D01*
G01*
X115000000Y-94400000D02*
G75*
G03*
X113161522Y-98838478I0J-2600000D01*
G01*
%TO.C,Q3*%
X93200000Y-98850000D02*
X96800000Y-98850000D01*
X96838478Y-98838478D02*
G75*
G03*
X95000000Y-94400000I-1838478J1838478D01*
G01*
X95000000Y-94400000D02*
G75*
G03*
X93161522Y-98838478I0J-2600000D01*
G01*
%TO.C,Q2*%
X85000000Y-94400000D02*
G75*
G03*
X83161522Y-98838478I0J-2600000D01*
G01*
X86838478Y-98838478D02*
G75*
G03*
X85000000Y-94400000I-1838478J1838478D01*
G01*
X83200000Y-98850000D02*
X86800000Y-98850000D01*
%TO.C,Q1*%
X90476956Y-68826956D02*
X86876956Y-68826956D01*
X86838478Y-68838478D02*
G75*
G03*
X88676956Y-73276956I1838478J-1838478D01*
G01*
X88676956Y-73276956D02*
G75*
G03*
X90515434Y-68838478I0J2600000D01*
G01*
%TO.C,J3*%
X83670000Y-144920000D02*
X83670000Y-109300000D01*
X86330000Y-109300000D02*
X83670000Y-109300000D01*
X83670000Y-147520000D02*
X83670000Y-146190000D01*
X85000000Y-147520000D02*
X83670000Y-147520000D01*
X86330000Y-144920000D02*
X86330000Y-109300000D01*
X86330000Y-144920000D02*
X83670000Y-144920000D01*
%TO.C,J2*%
X113670000Y-144920000D02*
X113670000Y-109300000D01*
X116330000Y-109300000D02*
X113670000Y-109300000D01*
X113670000Y-147520000D02*
X113670000Y-146190000D01*
X115000000Y-147520000D02*
X113670000Y-147520000D01*
X116330000Y-144920000D02*
X116330000Y-109300000D01*
X116330000Y-144920000D02*
X113670000Y-144920000D01*
%TO.C,J1*%
X121690000Y-86980000D02*
X110940000Y-86980000D01*
X99500000Y-89680000D02*
X100500000Y-89680000D01*
X122990000Y-88290000D02*
X94790000Y-88290000D01*
X110940000Y-86980000D02*
X110940000Y-88290000D01*
X110940000Y-86980000D02*
X110940000Y-86980000D01*
X96090000Y-86980000D02*
X96090000Y-80480000D01*
X100500000Y-89680000D02*
X100000000Y-88680000D01*
X94790000Y-79170000D02*
X122990000Y-79170000D01*
X122990000Y-79170000D02*
X122990000Y-88290000D01*
X96090000Y-80480000D02*
X121690000Y-80480000D01*
X106840000Y-88290000D02*
X106840000Y-86980000D01*
X121690000Y-80480000D02*
X121690000Y-86980000D01*
X94790000Y-88290000D02*
X94790000Y-79170000D01*
X106840000Y-86980000D02*
X96090000Y-86980000D01*
X100000000Y-88680000D02*
X99500000Y-89680000D01*
D11*
%TO.C,A1*%
X91110000Y-150000000D02*
X108890000Y-150000000D01*
X108890000Y-106820000D02*
X108890000Y-150000000D01*
X91110000Y-106820000D02*
X108890000Y-106820000D01*
X91110000Y-106820000D02*
X91110000Y-150000000D01*
%TD*%
M02*
