M48
; DRILL file {KiCad 7.0.6} date Sun Dec  3 11:13:03 2023
; FORMAT={-:-/ absolute / inch / decimal}
; #@! TF.CreationDate,2023-12-03T11:13:03+09:00
; #@! TF.GenerationSoftware,Kicad,Pcbnew,7.0.6
; #@! TF.FileFunction,Plated,1,2,PTH
FMAT,2
INCH
; #@! TA.AperFunction,Plated,PTH,ViaDrill
T1C0.0276
; #@! TA.AperFunction,Plated,PTH,ComponentDrill
T2C0.0295
; #@! TA.AperFunction,Plated,PTH,ComponentDrill
T3C0.0394
; #@! TA.AperFunction,Plated,PTH,ComponentDrill
T4C0.0400
; #@! TA.AperFunction,Plated,PTH,ComponentDrill
T5C0.1260
%
G90
G05
T1
X3.1996Y-3.4305
X3.1996Y-4.2355
X3.937Y-4.0551
T2
X3.2965Y-3.8189
X3.3465Y-3.8189
X3.3965Y-3.8189
X3.4412Y-2.7826
X3.4912Y-2.7826
X3.5412Y-2.7826
X3.6902Y-3.8189
X3.7402Y-3.8189
X3.7902Y-3.8189
X3.8349Y-2.7826
X3.8849Y-2.7826
X3.9349Y-2.7826
X4.0839Y-3.8189
X4.1339Y-3.8189
X4.1839Y-3.8189
X4.2286Y-2.7826
X4.2786Y-2.7826
X4.3286Y-2.7826
X4.4776Y-3.8189
X4.5276Y-3.8189
X4.5776Y-3.8189
X4.6223Y-2.7826
X4.6723Y-2.7826
X4.7223Y-2.7826
X4.8713Y-3.813
X4.9213Y-3.813
X4.9713Y-3.813
X5.016Y-2.7826
X5.066Y-2.7826
X5.116Y-2.7826
X5.265Y-3.8189
X5.315Y-3.0602
X5.315Y-3.1102
X5.315Y-3.1602
X5.315Y-3.4539
X5.315Y-3.5039
X5.315Y-3.5539
X5.315Y-3.8189
X5.365Y-3.8189
T3
X3.3465Y-4.3555
X3.3465Y-4.4555
X3.3465Y-4.5555
X3.3465Y-4.6555
X3.3465Y-4.7555
X3.3465Y-4.8555
X3.3465Y-4.9555
X3.3465Y-5.0555
X3.3465Y-5.1555
X3.3465Y-5.2555
X3.3465Y-5.3555
X3.3465Y-5.4555
X3.3465Y-5.5555
X3.3465Y-5.6555
X3.3465Y-5.7555
X3.937Y-3.2465
X3.937Y-3.3465
X4.037Y-3.2465
X4.037Y-3.3465
X4.137Y-3.2465
X4.137Y-3.3465
X4.237Y-3.2465
X4.237Y-3.3465
X4.337Y-3.2465
X4.337Y-3.3465
X4.437Y-3.2465
X4.437Y-3.3465
X4.5276Y-4.3555
X4.5276Y-4.4555
X4.5276Y-4.5555
X4.5276Y-4.6555
X4.5276Y-4.7555
X4.5276Y-4.8555
X4.5276Y-4.9555
X4.5276Y-5.0555
X4.5276Y-5.1555
X4.5276Y-5.2555
X4.5276Y-5.3555
X4.5276Y-5.4555
X4.5276Y-5.5555
X4.5276Y-5.6555
X4.5276Y-5.7555
X4.537Y-3.2465
X4.537Y-3.3465
X4.637Y-3.2465
X4.637Y-3.3465
X4.9213Y-4.3555
X4.9213Y-4.4555
X4.9213Y-4.5555
X4.9213Y-4.6555
X4.9213Y-4.7555
X4.9213Y-4.8555
X4.9213Y-4.9555
X4.9213Y-5.0555
X4.9213Y-5.1555
X4.9213Y-5.2555
X4.9213Y-5.3555
X4.9213Y-5.4555
X4.9213Y-5.5555
X4.9213Y-5.6555
X4.9213Y-5.7555
T4
X3.637Y-4.3555
X3.637Y-4.4555
X3.637Y-4.5555
X3.637Y-4.6555
X3.637Y-4.7555
X3.637Y-4.8555
X3.637Y-4.9555
X3.637Y-5.0555
X3.637Y-5.1555
X3.637Y-5.2555
X3.637Y-5.3555
X3.637Y-5.4555
X3.637Y-5.5555
X3.637Y-5.6555
X3.637Y-5.7555
X4.237Y-4.3555
X4.237Y-4.4555
X4.237Y-4.5555
X4.237Y-4.6555
X4.237Y-4.7555
X4.237Y-4.8555
X4.237Y-4.9555
X4.237Y-5.0555
X4.237Y-5.1555
X4.237Y-5.2555
X4.237Y-5.3555
X4.237Y-5.4555
X4.237Y-5.5555
X4.237Y-5.6555
X4.237Y-5.7555
T5
X5.315Y-5.7087
X5.7087Y-5.7087
T0
M30
